<?xml version="1.0" encoding="UTF-8"?>
<svg width="32px" height="32px" viewBox="0 0 32 32" version="1.1" xmlns="http://www.w3.org/2000/svg" xmlns:xlink="http://www.w3.org/1999/xlink">
    <!-- Generator: Sketch 49.1 (51147) - http://www.bohemiancoding.com/sketch -->
    <title>icon-share-twitter@1.5x</title>
    <desc>Created with Sketch.</desc>
    <defs></defs>
    <g id="Home-page" stroke="none" stroke-width="1" fill="none" fill-rule="evenodd">
        <g id="Home-page---June-mobile-v2" transform="translate(-174.000000, -2667.000000)" fill="#39A0CD">
            <g id="Group-9-Copy-2" transform="translate(50.000000, 2657.000000)">
                <path d="M146.362,22.738 C146.369,22.879 146.372,23.02 146.372,23.162 C146.372,27.5 143.07,32.502 137.032,32.502 C135.178,32.502 133.453,31.959 132,31.027 C132.258,31.057 132.519,31.072 132.783,31.072 C134.322,31.072 135.736,30.549 136.859,29.668 C135.424,29.641 134.211,28.692 133.794,27.389 C133.994,27.426 134.199,27.447 134.411,27.447 C134.711,27.447 135.001,27.406 135.275,27.332 C133.775,27.029 132.643,25.703 132.643,24.113 L132.643,24.072 C133.086,24.318 133.592,24.465 134.13,24.483 C133.249,23.895 132.67,22.889 132.67,21.75 C132.67,21.149 132.832,20.584 133.114,20.1 C134.732,22.086 137.152,23.393 139.88,23.529 C139.824,23.289 139.795,23.039 139.795,22.781 C139.795,20.969 141.265,19.5 143.078,19.5 C144.021,19.5 144.875,19.899 145.474,20.535 C146.221,20.389 146.924,20.115 147.559,19.738 C147.313,20.506 146.793,21.149 146.115,21.555 C146.779,21.477 147.412,21.299 148,21.039 C147.561,21.697 147.004,22.275 146.362,22.738 L146.362,22.738 Z M140,10 C131.164,10 124,17.164 124,26 C124,34.838 131.164,42 140,42 C148.836,42 156,34.838 156,26 C156,17.164 148.836,10 140,10 L140,10 Z" id="icon-share-twitter"></path>
            </g>
        </g>
    </g>
</svg>