<?xml version="1.0" encoding="UTF-8"?>
<svg width="32px" height="32px" viewBox="0 0 32 32" version="1.1" xmlns="http://www.w3.org/2000/svg" xmlns:xlink="http://www.w3.org/1999/xlink">
    <!-- Generator: Sketch 49.1 (51147) - http://www.bohemiancoding.com/sketch -->
    <title>icon-share-whatsapp@1.5x</title>
    <desc>Created with Sketch.</desc>
    <defs>
        <polygon id="path-1" points="0 0 19 0 19 19 0 19"></polygon>
    </defs>
    <g id="Home-page" stroke="none" stroke-width="1" fill="none" fill-rule="evenodd">
        <g id="Home-page---June-mobile-v2" transform="translate(-248.000000, -2667.000000)">
            <g id="Group-9-Copy-2" transform="translate(50.000000, 2657.000000)">
                <g id="icon-share-whatsapp" transform="translate(198.000000, 10.000000)">
                    <circle id="Combined-Shape" fill="#2EB01B" cx="16" cy="16" r="16"></circle>
                    <g id="Page-1" transform="translate(7.000000, 6.000000)">
                        <mask id="mask-2" fill="white">
                            <use xlink:href="#path-1"></use>
                        </mask>
                        <g id="Clip-2"></g>
                        <path d="M14.3827889,11.3869111 C14.3253667,11.2925444 14.1729444,11.2353333 13.9445222,11.1219667 C13.7156778,11.0088111 12.5913,10.4595 12.3823,10.3843444 C12.1726667,10.3087667 12.0198222,10.2707667 11.8676111,10.4975 C11.7154,10.7246556 11.2771333,11.2353333 11.1435,11.3869111 C11.0100778,11.5387 10.8770778,11.5577 10.6482333,11.4441222 C10.4198111,11.3305444 9.68303333,11.0909333 8.80966667,10.3182667 C8.1301,9.71702222 7.67114444,8.97475556 7.53772222,8.74738889 C7.40451111,8.52023333 7.52378889,8.39757778 7.638,8.28484444 C7.74102222,8.18308889 7.86684444,8.01968889 7.98105556,7.88732222 C8.09568889,7.75474444 8.13368889,7.66058889 8.20947778,7.5088 C8.28611111,7.35764444 8.2479,7.22527778 8.19047778,7.11148889 C8.13347778,6.99791111 7.67578889,5.88155556 7.48536667,5.42745556 C7.29494444,4.97356667 7.10473333,5.04914444 6.9711,5.04914444 C6.83788889,5.04914444 6.68525556,5.03014444 6.53283333,5.03014444 C6.38041111,5.03014444 6.13256667,5.08693333 5.92293333,5.31366667 C5.71351111,5.54103333 5.12303333,6.08992222 5.12303333,7.20585556 C5.12303333,8.32221111 5.94193333,9.40077778 6.05656667,9.55214444 C6.17077778,9.70308889 7.63778889,12.0685889 9.96233333,12.9767889 C12.2866667,13.8849889 12.2866667,13.5818333 12.7059333,13.5440444 C13.1247778,13.5060444 14.0583111,12.9951556 14.2495778,12.4656889 C14.4397889,11.9355889 14.4397889,11.4812778 14.3827889,11.3869111 M9.67268889,1.47376667 C5.34828889,1.47376667 1.83075556,4.9647 1.83075556,9.25511111 C1.83075556,10.9579333 2.38576667,12.5347222 3.32457778,13.8174333 L2.34481111,16.7071222 L5.35842222,15.7493111 C6.59658889,16.5625111 8.07985556,17.0366667 9.6729,17.0366667 C13.9966667,17.0366667 17.5148333,13.5463667 17.5148333,9.25553333 C17.5148333,4.96512222 13.9968778,1.47376667 9.67268889,1.47376667 M19,9.25511111 C19,14.3667444 14.8244333,18.5104333 9.67268889,18.5104333 C8.03721111,18.5104333 6.50074444,18.0926444 5.16398889,17.3588222 L0,19 L1.68361111,14.0340333 C0.834311111,12.6396444 0.345166667,11.0039556 0.345166667,9.25511111 C0.345166667,4.14347778 4.52115556,0 9.67268889,0 C14.8248556,0 19,4.14347778 19,9.25511111" id="Fill-1" fill="#FFFFFF" mask="url(#mask-2)"></path>
                    </g>
                </g>
            </g>
        </g>
    </g>
</svg>