<svg xmlns="http://www.w3.org/2000/svg" xmlns:xlink="http://www.w3.org/1999/xlink" width="49" height="40" viewBox="0 0 49 40">
    <defs>
        <path id="a" d="M0 0h49v40H0z"/>
    </defs>
    <g fill="none" fill-rule="evenodd">
        <mask id="b" fill="#fff">
            <use xlink:href="#a"/>
        </mask>
        <path fill="#FFF" d="M43.303 30.884c-1.06-.07-.78-2.54-3.021-2.266-1.6.19-1.776 2.07-1.914 3.537-.157 1.644-.35 3.032-.839 2.802-.412-.189-.304-.936-.477-3.222-.2-2.618-.853-4.059-2.422-4.308-1.928-.302-2.674 2.58-3.008 3.7-.329 1.106-.908 1.61-1.276 1.61-.324 0-.859-.15-1.01-1.46-.152-1.321.946-3.588 2.462-5.173 4.559-4.761 11.108-8.12 11.108-15.482C42.906 3.674 37.862 0 33.222 0c-3.553 0-5.53 2.064-6.216 2.739-1.105 1.087-1.586 2.298-2.008 2.298-.417 0-.892-1.211-1.992-2.298C22.319 2.064 20.338 0 16.79 0c-4.64 0-9.684 3.674-9.684 10.622 0 7.362 6.544 10.72 11.107 15.482 1.516 1.585 2.585 3.843 2.46 5.173-.139 1.426-.694 1.362-.95 1.356-.146-.013-.858-.262-1.294-1.887-.398-1.486-.898-2.849-2.562-2.939-1.849-.112-2.334 2.416-2.492 4.42-.137 1.722-.185 4.957-.839 4.69-.381-.159-.568-3.866-.878-6.708-.241-2.2-.535-6.901-1.829-7.74-1.566-1.015-2.94.124-3.371 1.926-.319 1.348-.368 2.462-.776 4.276-.304 1.336-.647 2.2-1.972 2.2L0 30.89v1.99h.85c4.798.196 6.153-.288 6.726-2.436.51-1.919.712-4.119.825-4.734.178-.93.76-1.395 1.01 1.199.129 1.289.25 2.934.447 4.603.588 4.911.741 8.304 2.91 8.48 2.403.203 2.417-4.165 2.576-5.894.097-1.1.24-4.25.805-3.909.778.465.479 4.413 4.18 4.578 2.118.097 2.893-1.493 3.031-3.255.128-1.664-1.472-4.133-3.656-6.26-5.254-5.127-8.918-7.767-8.918-13.419 0-5.769 4.062-8.63 7.614-8.63.78 0 3.168-.131 6.054 4.5.122.194.353.275.55.306.2-.031.431-.112.549-.307 2.886-4.63 5.273-4.5 6.06-4.5 3.546 0 7.613 2.862 7.613 8.631 0 5.652-3.693 8.153-8.948 13.281-2.18 2.12-3.67 4.729-3.626 6.398.039 1.603.912 3.352 3.032 3.255 3.576-.165 3.374-3.066 4.107-4.63.397-.839.908-.839 1.035.424.136 1.324.136 1.704.273 3.046.177 1.729.796 3.674 2.376 3.522 1.354-.13 2.134-.961 2.39-3.45.073-.727.127-1.053.219-2.109.055-.596.241-1.054.502-.968.274.098.513.712.7 1.125.56 1.239 1.85 1.173 2.15 1.18 1.31.026 1.766.005 1.766.005L49 32.901v-1.945c-2.184-.006-5.06-.025-5.697-.072" mask="url(#b)"/>
    </g>
</svg>
