<?xml version="1.0" encoding="UTF-8"?>
<svg width="48px" height="48px" viewBox="0 0 48 48" version="1.1" xmlns="http://www.w3.org/2000/svg" xmlns:xlink="http://www.w3.org/1999/xlink">
    <!-- Generator: Sketch 47.1 (45422) - http://www.bohemiancoding.com/sketch -->
    <title>v</title>
    <desc>Created with Sketch.</desc>
    <defs></defs>
    <g id="Page-1" stroke="none" stroke-width="1" fill="none" fill-rule="evenodd">
        <g id="v" fill="#000000">
            <path d="M40.236,9.94775 C38.896,9.20975 36.789,8.43575 35.438,8.18675 C34.078,7.93775 31.946,7.93775 30.584,8.18675 C29.234,8.43475 27.327,9.09875 26.241,9.69775 L27.173,11.44475 C28.074,10.94875 29.796,10.35175 30.932,10.14275 C32.059,9.93575 33.965,9.93475 35.09,10.14275 C36.228,10.35175 38.157,11.06275 39.303,11.69475 C40.231,12.20575 41.044,13.69375 41.044,14.88075 L41.044,36.92275 C41.044,37.37975 40.919,37.65975 40.796,37.73375 C40.69,37.79775 40.476,37.75675 40.236,37.62375 C38.896,36.88475 36.789,36.11175 35.438,35.86175 C34.078,35.61375 31.946,35.61375 30.584,35.86175 C29.234,36.11175 27.126,36.88475 25.787,37.62375 C24.836,38.14675 23.164,38.14775 22.215,37.62375 C20.874,36.88475 18.766,36.11075 17.416,35.86175 C16.055,35.61375 13.924,35.61375 12.562,35.86175 C11.213,36.11175 9.104,36.88475 7.765,37.62375 C7.526,37.75575 7.311,37.79875 7.205,37.73375 C7.082,37.65975 6.957,37.37975 6.957,36.92275 L6.957,14.88075 C6.957,13.69375 7.77,12.20675 8.698,11.69475 C9.843,11.06275 11.773,10.35175 12.911,10.14275 C14.038,9.93475 15.941,9.93475 17.068,10.14275 C18.206,10.35175 20.135,11.06275 21.281,11.69475 C22.209,12.20675 23.022,13.69375 23.022,14.88075 L23.022,33.36275 L24.979,33.36275 L24.979,14.88075 C24.979,12.96875 23.763,10.80175 22.215,9.94775 C20.874,9.20875 18.766,8.43475 17.416,8.18675 C16.055,7.93775 13.924,7.93775 12.562,8.18675 C11.213,8.43575 9.104,9.20975 7.765,9.94775 C6.215,10.80175 5,12.96875 5,14.88075 L5,36.92275 C5,38.05975 5.438,38.97875 6.204,39.44175 C6.919,39.87475 7.829,39.84975 8.698,39.37075 C9.843,38.73875 11.773,38.02875 12.911,37.81875 C14.038,37.61075 15.941,37.61075 17.068,37.81875 C18.206,38.02775 20.135,38.73875 21.281,39.37075 C22.044,39.79075 23.021,40.00075 24,40.00075 C24.979,40.00075 25.957,39.79075 26.719,39.37075 C27.865,38.73875 29.795,38.02875 30.932,37.81875 C32.059,37.61075 33.965,37.61075 35.09,37.81875 C36.228,38.02875 38.157,38.73875 39.303,39.37075 C40.172,39.84775 41.078,39.87575 41.797,39.44175 C42.561,38.97875 43,38.05975 43,36.92275 L43,14.88075 C43,12.96875 41.786,10.80175 40.236,9.94775" id="Fill-3"></path>
        </g>
    </g>
</svg>