<?xml version="1.0" encoding="UTF-8"?>
<svg width="36px" height="36px" viewBox="0 0 36 36" version="1.1" xmlns="http://www.w3.org/2000/svg" xmlns:xlink="http://www.w3.org/1999/xlink">
    <!-- Generator: Sketch 48.2 (47327) - http://www.bohemiancoding.com/sketch -->
    <title>Icons/Utility/Donate</title>
    <desc>Created with Sketch.</desc>
    <defs></defs>
    <g id="Icons" stroke="none" stroke-width="1" fill="none" fill-rule="evenodd">
        <g id="Icons/Utility/Donate" fill="#010101" fill-rule="nonzero">
            <path d="M18.5858495,8.78573652 C19.5352825,6.88100879 21.1577153,5.62783707 23.4666706,5.50954053 C27.8644311,5.28384364 31.5,9.08961192 31.5,13.6432979 C31.5,14.9883226 31.1211689,16.3582633 30.4510484,17.8063211 C29.2201349,20.4659899 27.4457721,22.5419117 24.0987854,25.73039 C22.417984,27.3328874 20.6871696,28.8235641 18.9156581,30.1882819 C18.3522389,30.6223227 17.5614637,30.6010328 17.022215,30.1373049 L11.901411,25.7310753 C8.55257416,22.5394082 6.78018759,20.4656796 5.54919851,17.8063052 C4.8787205,16.3561487 4.5,14.987472 4.5,13.6432979 C4.5,9.15905023 8.05325965,5.50756905 12.456934,5.50756905 C15.8580925,5.50756905 17.6197777,7.25157472 18.1615834,9.79623429 C18.2753127,9.4672485 18.4153053,9.12787789 18.5858495,8.78573652 Z M22.0290844,23.5586771 C25.1147421,20.6191514 26.7041425,18.7596269 27.7284677,16.5463393 C28.2314067,15.4595426 28.5,14.4882471 28.5,13.6432979 C28.5,10.7440241 26.2335681,8.37148909 23.6203007,8.50560424 C22.4924058,8.56339058 21.770951,9.12064428 21.2707817,10.1240711 C21.0656383,10.5356244 20.9177195,10.9912205 20.8221697,11.4488106 C20.7657028,11.7192319 20.7405965,11.918403 20.7356316,11.9955332 C20.6443256,13.57863 19.4138313,14.6869299 17.9565814,14.6517427 C16.4535616,14.6154503 15.3143592,13.3912755 15.346771,11.7430774 C15.3673978,9.63631998 14.6587978,8.50756905 12.456934,8.50756905 C9.72869718,8.50756905 7.5,10.7978733 7.5,13.6432979 C7.5,14.487278 7.76861869,15.4580522 8.27195744,16.5467086 C9.29615244,18.759334 10.8839462,20.6170853 13.9143119,23.5079358 L18.0423558,27.0578543 C19.3972702,25.9680504 20.7278291,24.7993102 22.0290844,23.5586771 Z" id="Page-1"></path>
        </g>
    </g>
</svg>