<?xml version="1.0" encoding="UTF-8"?>
<svg width="32px" height="32px" viewBox="0 0 32 32" version="1.1" xmlns="http://www.w3.org/2000/svg" xmlns:xlink="http://www.w3.org/1999/xlink">
    <!-- Generator: Sketch 47.1 (45422) - http://www.bohemiancoding.com/sketch -->
    <title>Artboard</title>
    <desc>Created with Sketch.</desc>
    <defs></defs>
    <g id="Page-1" stroke="none" stroke-width="1" fill="none" fill-rule="evenodd">
        <g id="Group" fill="#4E5461">
            <path d="M16,32 C7.163444,32 0,24.836556 0,16 C0,7.163444 7.163444,0 16,0 C24.836556,0 32,7.163444 32,16 C32,24.836556 24.836556,32 16,32 Z M10.3342466,22.4 L21.6657534,22.4 C22.5205479,22.4 23.2,21.7309353 23.2,20.8892086 L23.2,11.9107914 C23.2,11.0690647 22.5205479,10.4 21.6657534,10.4 L18.8383562,10.4 L18.8383562,11.694964 L21.6438356,11.694964 C21.7753425,11.694964 21.8630137,11.781295 21.8630137,11.9107914 L21.8630137,20.9107914 C21.8630137,21.0402878 21.7753425,21.1266187 21.6438356,21.1266187 L10.3342466,21.1266187 C10.2027397,21.1266187 10.1150685,21.0402878 10.1150685,20.9107914 L10.1150685,11.9107914 C10.1150685,11.781295 10.2027397,11.694964 10.3342466,11.694964 L13.139726,11.694964 L13.139726,10.4 L10.3342466,10.4 C9.47945205,10.4 8.8,11.0690647 8.8,11.9107914 L8.8,20.9107914 C8.8,21.7309353 9.47945205,22.4 10.3342466,22.4 Z M12.832,14.132852 L12,15.1292419 L15.5626667,18.2483755 C15.6906667,18.3566787 15.84,18.4 15.9893333,18.4 C16.1386667,18.4 16.288,18.3566787 16.416,18.2483755 L20,15.1292419 L19.1466667,14.132852 L16.6293333,16.3205776 L16.6293333,6.4 L15.3493333,6.4 L15.3493333,16.3205776 L12.832,14.132852 Z" id="Combined-Shape"></path>
        </g>
        <g id="Artboard"></g>
    </g>
</svg>