<?xml version="1.0" encoding="UTF-8"?>
<svg width="48px" height="48px" viewBox="0 0 48 48" version="1.1" xmlns="http://www.w3.org/2000/svg" xmlns:xlink="http://www.w3.org/1999/xlink">
    <!-- Generator: Sketch 47.1 (45422) - http://www.bohemiancoding.com/sketch -->
    <title>Artboard</title>
    <desc>Created with Sketch.</desc>
    <defs></defs>
    <g id="Page-1" stroke="none" stroke-width="1" fill="none" fill-rule="evenodd">
        <path d="M36.1658,16.0001 L29.9048,16.0001 L29.9048,18.0001 L36.1658,18.0001 C37.1778,18.0001 37.9998,18.8231 37.9998,19.8351 L37.9998,36.1651 C37.9998,37.1771 37.1778,38.0001 36.1658,38.0001 L11.7878,38.0001 C10.7758,38.0001 9.9528,37.1771 9.9528,36.1651 L9.9528,19.8351 C9.9528,18.8231 10.7758,18.0001 11.7878,18.0001 L18.0148,18.0001 L18.0148,16.0001 L11.7878,16.0001 C9.6728,16.0001 7.9528,17.7211 7.9528,19.8351 L7.9528,36.1651 C7.9528,38.2791 9.6728,40.0001 11.7878,40.0001 L36.1658,40.0001 C38.2798,40.0001 39.9998,38.2791 39.9998,36.1651 L39.9998,19.8351 C39.9998,17.7211 38.2798,16.0001 36.1658,16.0001" id="Fill-5" fill="#000000"></path>
        <path d="M16.3372,23.7237 L15.0492,25.2547 L22.9352,31.8897 C23.2412,32.1477 23.6262,32.2767 24.0102,32.2767 C24.3962,32.2767 24.7822,32.1467 25.0892,31.8877 L32.9512,25.2537 L31.6622,23.7247 L24.9992,29.3467 L24.9992,7.9997 L22.9992,7.9997 L22.9992,29.3287 L16.3372,23.7237 Z" id="Fill-7" fill="#000000"></path>
        <g id="Artboard"></g>
    </g>
</svg>