<?xml version="1.0" encoding="UTF-8"?>
<svg width="32px" height="32px" viewBox="0 0 32 32" version="1.1" xmlns="http://www.w3.org/2000/svg" xmlns:xlink="http://www.w3.org/1999/xlink">
    <!-- Generator: Sketch 47.1 (45422) - http://www.bohemiancoding.com/sketch -->
    <title>Artboard</title>
    <desc>Created with Sketch.</desc>
    <defs></defs>
    <g id="Page-1" stroke="none" stroke-width="1" fill="none" fill-rule="evenodd">
        <g id="Group-2" fill="#474E5A">
            <path d="M16,32 C7.163444,32 0,24.836556 0,16 C0,7.163444 7.163444,0 16,0 C24.836556,0 32,7.163444 32,16 C32,24.836556 24.836556,32 16,32 Z M7.36365186,23.5458471 L24.6365754,23.5453926 C25.3884021,23.5453926 26.0002273,22.9335674 26.0002273,22.1817407 L26.0002273,11.2729804 C26.0002273,11.1079785 25.9106808,10.955704 25.7665883,10.8757031 C25.6229503,10.7957022 25.4470392,10.7993386 25.3061285,10.8861578 L16.7542131,16.1803089 C16.3014807,16.4598575 15.7237469,16.4507665 15.2801055,16.1557631 L7.08501233,10.6920647 C6.97501108,10.618882 6.90910124,10.4961534 6.90910124,10.3634246 C6.90910124,10.2420596 6.9563745,10.1279674 7.04183002,10.0420573 C7.12774009,9.95660178 7.24228684,9.90932852 7.36365186,9.90932852 L24.1820248,9.90932852 L24.1820248,9.00022728 L7.36365186,9.00022728 C6.99910226,9.00022728 6.65682565,9.14204707 6.39909544,9.39932272 C6.14181979,9.65705292 6,9.99978409 6,10.3638791 C6,10.8007023 6.2172752,11.2061614 6.58046114,11.4484369 L14.7760088,16.9116808 C15.514199,17.4048682 16.4783009,17.4198684 17.2324004,16.9534995 L25.091126,12.0884442 L25.091126,22.1817407 C25.091126,22.4326526 24.8870328,22.6362913 24.6365754,22.6362913 L7.36365186,22.6367459 C7.11319447,22.6367459 6.90910124,22.4331072 6.90910124,22.1821953 L6.90910124,13.0911829 L6,13.0911829 L6,22.1821953 C6,22.934022 6.61182513,23.5458471 7.36365186,23.5458471 Z" id="Combined-Shape"></path>
        </g>
        <g id="Artboard"></g>
    </g>
</svg>