<?xml version="1.0" encoding="utf-8"?>
<!-- Generator: Adobe Illustrator 22.0.1, SVG Export Plug-In . SVG Version: 6.00 Build 0)  -->
<svg version="1.1" id="Layer_1" xmlns="http://www.w3.org/2000/svg" xmlns:xlink="http://www.w3.org/1999/xlink" x="0px" y="0px"
	 viewBox="0 0 100 100" enable-background="new 0 0 100 100" xml:space="preserve">
<g>
	<path d="M46.111,79.262l-0.56,7.238l-26.23-1.819c-0.925-0.077-1.678-0.492-2.263-1.076c-0.585-0.584-0.999-1.338-1.077-2.263
		l-1.736-26.146l7.155-0.643l1.29,18.411l23.168-23.168l5.009,5.009L27.699,77.972L46.111,79.262z"/>
	<path d="M82.841,42.698l-1.29-18.411L58.384,47.455l-5.009-5.009l23.168-23.168l-18.411-1.29l0.56-7.238l26.23,1.819
		c0.925,0.077,1.678,0.492,2.263,1.076c0.585,0.585,0.999,1.338,1.077,2.263l1.736,26.147L82.841,42.698z"/>
</g>
</svg>
