<?xml version="1.0" encoding="UTF-8"?>
<svg width="32px" height="32px" viewBox="0 0 32 32" version="1.1" xmlns="http://www.w3.org/2000/svg" xmlns:xlink="http://www.w3.org/1999/xlink">
    <!-- Generator: Sketch 47.1 (45422) - http://www.bohemiancoding.com/sketch -->
    <title>Artboard 2</title>
    <desc>Created with Sketch.</desc>
    <defs></defs>
    <g id="Page-1" stroke="none" stroke-width="1" fill="none" fill-rule="evenodd">
        <g id="Artboard-2" fill="#FFFFFF">
            <g id="Group-8">
                <path d="M19.2326865,9.49313612 C20.0126786,9.5287029 20.4362726,9.65902973 20.718171,9.7685881 C21.0915904,9.91371325 21.3580872,10.0870695 21.6380168,10.3670309 C21.9179781,10.6469604 22.0913344,10.9134572 22.2364595,11.2868766 C22.3460179,11.5687751 22.4763447,11.992369 22.5119115,12.7723611 C22.5503998,13.6159288 22.5585611,13.868961 22.5585611,16.0050635 C22.5585611,18.1411342 22.5503998,18.3941664 22.5119115,19.2377341 C22.4763447,20.0177262 22.3460179,20.4413202 22.2364595,20.7232186 C22.0913344,21.096638 21.9179781,21.3631348 21.6380168,21.6430644 C21.3580872,21.9230257 21.0915904,22.096382 20.718171,22.2415071 C20.4362726,22.3510655 20.0126786,22.4813923 19.2326865,22.5169591 C18.3892458,22.5554474 18.1362454,22.5636088 16.0000159,22.5636088 C13.8637546,22.5636088 13.6107859,22.5554474 12.7673135,22.5169591 C11.9873214,22.4813923 11.5637274,22.3510655 11.281829,22.2415071 C10.9084096,22.096382 10.6419128,21.9230257 10.3619832,21.6430644 C10.0820537,21.3631348 9.90866563,21.096638 9.76354048,20.7232186 C9.65398211,20.4413202 9.52365528,20.0177262 9.4880885,19.2377341 C9.44960017,18.3941664 9.44143887,18.1411342 9.44143887,16.0050635 C9.44143887,13.868961 9.44960017,13.6159288 9.4880885,12.7723611 C9.52365528,11.992369 9.65398211,11.5687751 9.76354048,11.2868766 C9.90866563,10.9134572 10.0820219,10.6469604 10.3619832,10.3670309 C10.6419128,10.0870695 10.9084096,9.91371325 11.281829,9.7685881 C11.5637274,9.65902973 11.9873214,9.5287029 12.7673135,9.49313612 C13.6108812,9.45464779 13.8639134,9.44648649 16.0000159,9.44648649 C18.1360866,9.44648649 18.3891188,9.45464779 19.2326865,9.49313612 Z M21.1764706,11.7647214 C21.1764706,11.2449192 20.7550808,10.8235294 20.2352786,10.8235294 C19.7155074,10.8235294 19.2941176,11.2449192 19.2941176,11.7647214 C19.2941176,12.2845237 19.7155074,12.7058824 20.2352786,12.7058824 C20.7550808,12.7058824 21.1764706,12.2845237 21.1764706,11.7647214 Z M11.7647059,16.0000164 C11.7647059,18.3391034 13.6608966,20.2352941 16.0000164,20.2352941 C18.3391034,20.2352941 20.2352941,18.3391034 20.2352941,16.0000164 C20.2352941,13.6608966 18.3391034,11.7647059 16.0000164,11.7647059 C13.6608966,11.7647059 11.7647059,13.6608966 11.7647059,16.0000164 Z" id="Combined-Shape"></path>
                <path d="M16,32 C7.163444,32 0,24.836556 0,16 C0,7.163444 7.163444,0 16,0 C24.836556,0 32,7.163444 32,16 C32,24.836556 24.836556,32 16,32 Z M16.0000159,8.00504762 C13.8273304,8.00504762 13.5548953,8.01425687 12.7016102,8.05318979 C11.8501035,8.09202744 11.268555,8.22727646 10.759696,8.42505314 C10.2336253,8.62946683 9.78748454,8.90301345 9.34270931,9.34775693 C8.89796583,9.79253216 8.62441921,10.2386729 8.42000552,10.7647436 C8.22222884,11.2736026 8.08697982,11.8551511 8.04814217,12.7066578 C8.00920925,13.5599429 8,13.8323781 8,16.0050635 C8,18.1777172 8.00920925,18.4501523 8.04814217,19.3034374 C8.08697982,20.1549441 8.22222884,20.7364927 8.42000552,21.2453516 C8.62441921,21.7714223 8.89796583,22.2175631 9.34270931,22.6623383 C9.78748454,23.1070818 10.2336253,23.3806284 10.759696,23.5850739 C11.268555,23.7828188 11.8501035,23.9180678 12.7016102,23.9569054 C13.5548953,23.9958384 13.8273304,24.0050476 16.0000159,24.0050476 C18.1726696,24.0050476 18.4451047,23.9958384 19.2983898,23.9569054 C20.1498965,23.9180678 20.731445,23.7828188 21.240304,23.5850739 C21.7663747,23.3806284 22.2125155,23.1070818 22.6572907,22.6623383 C23.1020342,22.2175631 23.3755808,21.7714223 23.5800262,21.2453516 C23.7777712,20.7364927 23.9130202,20.1549441 23.9518578,19.3034374 C23.9907907,18.4501523 24,18.1777172 24,16.0050635 C24,13.8323781 23.9907907,13.5599429 23.9518578,12.7066578 C23.9130202,11.8551511 23.7777712,11.2736026 23.5800262,10.7647436 C23.3755808,10.2386729 23.1020342,9.79253216 22.6572907,9.34775693 C22.2125155,8.90301345 21.7663747,8.62946683 21.240304,8.42505314 C20.731445,8.22727646 20.1498965,8.09202744 19.2983898,8.05318979 C18.4451047,8.01425687 18.1726696,8.00504762 16.0000159,8.00504762 Z" id="Combined-Shape"></path>
                <path d="M16.0000164,18.7492277 C14.4816364,18.7492277 13.2507723,17.5183636 13.2507723,16.0000164 C13.2507723,14.4816364 14.4816364,13.2507723 16.0000164,13.2507723 C17.5183636,13.2507723 18.7492277,14.4816364 18.7492277,16.0000164 C18.7492277,17.5183636 17.5183636,18.7492277 16.0000164,18.7492277 Z" id="Path"></path>
            </g>
        </g>
    </g>
</svg>