<?xml version="1.0" encoding="UTF-8"?>
<svg width="32px" height="32px" viewBox="0 0 32 32" version="1.1" xmlns="http://www.w3.org/2000/svg" xmlns:xlink="http://www.w3.org/1999/xlink">
    <!-- Generator: Sketch 47.1 (45422) - http://www.bohemiancoding.com/sketch -->
    <title>Artboard 3</title>
    <desc>Created with Sketch.</desc>
    <defs></defs>
    <g id="Page-1" stroke="none" stroke-width="1" fill="none" fill-rule="evenodd">
        <path d="M24,23.647 L20.57,23.647 L20.57,18.127 C20.57,16.74 20.074,15.793 18.832,15.793 C17.885,15.793 17.32,16.434 17.072,17.049 C16.981,17.27 16.959,17.574 16.959,17.885 L16.959,23.647 L13.53,23.647 C13.53,23.647 13.574,14.297 13.53,13.33 L16.959,13.33 L16.959,14.791 C17.416,14.086 18.23,13.088 20.05,13.088 C22.306,13.088 24,14.561 24,17.731 L24,23.647 L24,23.647 Z M9.917,11.92 L9.894,11.92 C8.744,11.92 8,11.127 8,10.137 C8,9.125 8.767,8.354 9.939,8.354 C11.113,8.354 11.836,9.125 11.857,10.137 C11.857,11.127 11.113,11.92 9.917,11.92 L9.917,11.92 Z M8.202,13.33 L11.633,13.33 L11.633,23.647 L8.202,23.647 L8.202,13.33 Z M16,0 C7.163,0 0,7.164 0,16 C0,24.838 7.163,32 16,32 C24.836,32 32,24.838 32,16 C32,7.164 24.836,0 16,0 L16,0 Z" id="Fill-578" fill="#1D638A"></path>
        <g id="Artboard-3"></g>
    </g>
</svg>