<svg xmlns="http://www.w3.org/2000/svg" width="48" height="48" viewBox="0 0 48 48">
  <g fill="#E71348" fill-rule="evenodd" transform="translate(4 2)">
    <g fill-rule="nonzero">
      <path d="M39.8971048,21.9586889 C39.965146,22.6298743 40,23.3108669 40,24 C40,35.045695 31.045695,44 20,44 C8.954305,44 0,35.045695 0,24 C0,22.9833024 0.0758628905,21.9843235 0.22223681,21.0084152 L2,21.5 C1.86710925,22.3860129 2,23.0909694 2,24 C2,33.9411255 10.0588745,42 20,42 C29.9411255,42 38,33.9411255 38,24 C38,23.3821714 37.9689476,22.7684896 37.9073031,22.1604047"/>
      <path d="M20,38 C29.9411255,38 38,29.9411255 38,20 C38,10.0588745 29.9411255,2 20,2 C10.0588745,2 2,10.0588745 2,20 C2,29.9411255 10.0588745,38 20,38 Z M20,40 C8.954305,40 0,31.045695 0,20 C0,8.954305 8.954305,0 20,0 C31.045695,0 40,8.954305 40,20 C40,31.045695 31.045695,40 20,40 Z"/>
    </g>
    <path d="M23.663,23.578 L26.127,23.578 C26.127,26.46 24.323,28 21.551,28 L14.269,28 L14.269,25.646 C15.831,25.646 16.579,24.634 16.579,22.588 C16.579,22.368 16.557,22.17 16.535,21.95 L14.269,21.95 L14.269,19.596 L15.963,19.596 C15.677,18.694 15.413,17.792 15.413,16.934 C15.413,14.008 17.437,12.248 20.605,12.248 C23.663,12.248 25.093,14.14 25.093,15.636 C25.093,16.56 24.829,17.374 24.477,17.836 L21.881,16.978 C22.079,16.692 22.189,16.34 22.189,16.054 C22.189,15.372 21.683,14.866 20.671,14.866 C19.241,14.866 18.317,15.614 18.317,17.044 C18.317,17.924 18.603,18.738 18.889,19.596 L22.519,19.596 L22.519,21.95 L19.483,21.95 C19.505,22.126 19.505,22.324 19.505,22.522 C19.505,23.468 19.219,24.7 18.449,25.646 L21.551,25.646 C22.871,25.646 23.663,25.008 23.663,23.578 Z"/>
  </g>
</svg>
