<svg xmlns="http://www.w3.org/2000/svg" width="56" height="48" viewBox="0 0 56 48">
    <g fill="#FFF" fill-rule="nonzero">
        <path d="M25.589 27.464a13.263 13.263 0 0 0-9.378-3.885c-7.326 0-13.264 5.938-13.264 13.263v5.895c0 .814.66 1.474 1.474 1.474h17.684c.814 0 1.474-.66 1.474-1.474v-5.895c0-3.233.946-6.245 2.578-8.774a13.271 13.271 0 0 0-.568-.604zm14.2-6.832c8.953 0 16.211 7.257 16.211 16.21v5.895a4.421 4.421 0 0 1-4.421 4.42H33.895a4.421 4.421 0 0 1-4.421-4.42v-5.895c0-3.24-1.186-6.358-3.317-8.774 2.885-4.474 7.913-7.436 13.632-7.436zm-13.263 16.21v5.895a4.421 4.421 0 0 1-4.42 4.42H4.42A4.421 4.421 0 0 1 0 42.738v-5.895c0-8.953 7.258-16.21 16.21-16.21a16.21 16.21 0 0 1 13.632 7.437 13.213 13.213 0 0 0-3.316 8.773zm5.895 0v5.895c0 .814.66 1.474 1.474 1.474h17.684c.814 0 1.474-.66 1.474-1.474v-5.895c0-7.325-5.938-13.263-13.264-13.263a13.231 13.231 0 0 0-9.947 4.49 16.21 16.21 0 0 1 2.58 8.773zM16.21 17.684A8.842 8.842 0 1 1 16.21 0a8.842 8.842 0 0 1 0 17.684zm0-2.947a5.895 5.895 0 1 0 0-11.79 5.895 5.895 0 0 0 0 11.79zM39.79 17.684A8.842 8.842 0 1 1 39.79 0a8.842 8.842 0 0 1 0 17.684zm0-2.947a5.895 5.895 0 1 0 0-11.79 5.895 5.895 0 0 0 0 11.79z"/>
    </g>
</svg>
