<?xml version="1.0" encoding="UTF-8"?>
<svg width="32px" height="32px" viewBox="0 0 32 32" version="1.1" xmlns="http://www.w3.org/2000/svg" xmlns:xlink="http://www.w3.org/1999/xlink">
    <!-- Generator: Sketch 47.1 (45422) - http://www.bohemiancoding.com/sketch -->
    <title>Artboard 2</title>
    <desc>Created with Sketch.</desc>
    <defs></defs>
    <g id="Page-1" stroke="none" stroke-width="1" fill="none" fill-rule="evenodd">
        <g id="Artboard-2" fill="#39A0CD">
            <path d="M22.362,12.738 C22.369,12.879 22.372,13.02 22.372,13.162 C22.372,17.5 19.07,22.502 13.032,22.502 C11.178,22.502 9.453,21.959 8,21.027 C8.258,21.057 8.519,21.072 8.783,21.072 C10.322,21.072 11.736,20.549 12.859,19.668 C11.424,19.641 10.211,18.692 9.794,17.389 C9.994,17.426 10.199,17.447 10.411,17.447 C10.711,17.447 11.001,17.406 11.275,17.332 C9.775,17.029 8.643,15.703 8.643,14.113 L8.643,14.072 C9.086,14.318 9.592,14.465 10.13,14.483 C9.249,13.895 8.67,12.889 8.67,11.75 C8.67,11.149 8.832,10.584 9.114,10.1 C10.732,12.086 13.152,13.393 15.88,13.529 C15.824,13.289 15.795,13.039 15.795,12.781 C15.795,10.969 17.265,9.5 19.078,9.5 C20.021,9.5 20.875,9.899 21.474,10.535 C22.221,10.389 22.924,10.115 23.559,9.738 C23.313,10.506 22.793,11.149 22.115,11.555 C22.779,11.477 23.412,11.299 24,11.039 C23.561,11.697 23.004,12.275 22.362,12.738 L22.362,12.738 Z M0,16 C0,24.838 7.164,32 16,32 C24.836,32 32,24.838 32,16 C32,7.164 24.836,0 16,0 C7.164,0 0,7.164 0,16 Z" id="Fill-576"></path>
        </g>
    </g>
</svg>