<?xml version="1.0" encoding="utf-8"?>
<!-- Generator: Adobe Illustrator 22.1.0, SVG Export Plug-In . SVG Version: 6.00 Build 0)  -->
<svg version="1.1" id="Layer_1" xmlns="http://www.w3.org/2000/svg" xmlns:xlink="http://www.w3.org/1999/xlink" x="0px" y="0px"
	 viewBox="0 0 32 32" style="enable-background:new 0 0 32 32;" xml:space="preserve">
<style type="text/css">
	.st0{fill:#2EB01B;}
</style>
<g>
	<path class="st0" d="M16.7,7.5c-4.3,0-7.8,3.5-7.8,7.8c0,1.7,0.6,3.3,1.5,4.6l-1,2.9l3-1c1.2,0.8,2.7,1.3,4.3,1.3
		c4.3,0,7.8-3.5,7.8-7.8C24.5,11,21,7.5,16.7,7.5z M21.2,18.5c-0.2,0.5-1.1,1-1.5,1.1c-0.4,0-0.4,0.3-2.7-0.6
		c-2.3-0.9-3.8-3.3-3.9-3.4c-0.1-0.2-0.9-1.2-0.9-2.3c0-1.1,0.6-1.7,0.8-1.9c0.2-0.2,0.5-0.3,0.6-0.3s0.3,0,0.4,0
		c0.1,0,0.3-0.1,0.5,0.4c0.2,0.5,0.6,1.6,0.7,1.7c0.1,0.1,0.1,0.2,0,0.4c-0.1,0.2-0.1,0.2-0.2,0.4c-0.1,0.1-0.2,0.3-0.3,0.4
		c-0.1,0.1-0.2,0.2-0.1,0.5c0.1,0.2,0.6,1,1.3,1.6c0.9,0.8,1.6,1,1.8,1.1c0.2,0.1,0.4,0.1,0.5-0.1c0.1-0.2,0.6-0.7,0.7-0.9
		c0.2-0.2,0.3-0.2,0.5-0.1c0.2,0.1,1.3,0.6,1.6,0.7c0.2,0.1,0.4,0.2,0.4,0.3C21.4,17.5,21.4,17.9,21.2,18.5z"/>
	<path class="st0" d="M16,0C7.2,0,0,7.2,0,16s7.2,16,16,16s16-7.2,16-16S24.8,0,16,0z M16.7,24.5c-1.6,0-3.2-0.4-4.5-1.2L7,25l1.7-5
		c-0.8-1.4-1.3-3-1.3-4.8c0-5.1,4.2-9.3,9.3-9.3c5.2,0,9.3,4.1,9.3,9.3S21.8,24.5,16.7,24.5z"/>
</g>
</svg>
