<?xml version="1.0" encoding="utf-8"?>
<!-- Generator: Adobe Illustrator 22.0.1, SVG Export Plug-In . SVG Version: 6.00 Build 0)  -->
<svg version="1.1" id="Layer_1" xmlns="http://www.w3.org/2000/svg" xmlns:xlink="http://www.w3.org/1999/xlink" x="0px" y="0px"
	 viewBox="0 0 100 100" enable-background="new 0 0 100 100" xml:space="preserve">
<path d="M92.161,28.681c-1.012-3.811-3.994-6.812-7.78-7.831C77.518,19,50,19,50,19s-27.518,0-34.381,1.851
	c-3.786,1.019-6.768,4.02-7.78,7.831C6,35.589,6,50,6,50s0,14.411,1.839,21.319c1.012,3.811,3.994,6.812,7.78,7.831
	C22.482,81,50,81,50,81s27.518,0,34.381-1.851c3.786-1.019,6.768-4.02,7.78-7.831C94,64.411,94,50,94,50S94,35.589,92.161,28.681z
	 M41,63.084V36.916L64,50L41,63.084z"/>
</svg>
