<?xml version="1.0" encoding="UTF-8"?>
<svg width="788px" height="439px" viewBox="0 0 788 439" version="1.1" xmlns="http://www.w3.org/2000/svg" xmlns:xlink="http://www.w3.org/1999/xlink">
    <!-- Generator: Sketch 48.2 (47327) - http://www.bohemiancoding.com/sketch -->
    <title>Artboard 2</title>
    <desc>Created with Sketch.</desc>
    <defs></defs>
    <g id="How-you-can-help" stroke="none" stroke-width="1" fill="none" fill-rule="evenodd">
        <g id="Artboard-2">
            <g id="Group-14">
                <g id="Group-13">
                    <g id="Group-11-Copy-3" transform="translate(86.332155, 0.000000)" fill="#A0003C" fill-rule="nonzero">
                        <path d="M72.3589107,33.786268 L131.808223,73.6453503 C134.844558,75.6621635 136.196838,79.4294554 135.135125,82.9137049 C134.073412,86.3979543 130.849126,88.7740695 127.219207,88.7594962 L8.29100874,88.7594631 C4.64456531,88.7740695 1.4202793,86.3979543 0.358566398,82.9137049 C-0.703146501,79.4294554 0.649133887,75.6621635 3.67109885,73.6549389 L63.1508062,33.7865737 C65.9357725,31.9180468 69.5759173,31.9183283 72.3589107,33.786268 Z M8.24876725,80.4987741 C8.24575302,80.5157436 47.9080745,80.5257995 127.235732,80.5289419 C127.2477,80.5165268 107.423883,67.213138 67.7642792,40.6187756 C67.7605731,40.616288 47.9220691,53.9096209 8.24876725,80.4987741 Z" id="Shape"></path>
                        <path d="M59.7635608,14.3934426 C59.7635608,16.6491971 57.9270152,18.4778475 55.6615213,18.4778475 C53.3960274,18.4778475 51.5594817,16.6491971 51.5594817,14.3934426 C51.5594817,6.34426182 58.6143105,0 67.147232,0 C75.6909636,0 82.7349823,6.32067942 82.7349823,14.3934426 C82.7349823,22.4662058 75.6909636,28.7868852 67.147232,28.7868852 C64.8817382,28.7868852 63.0451925,26.9582349 63.0451925,24.7024804 C63.0451925,22.4467259 64.8817382,20.6180756 67.147232,20.6180756 C71.3393257,20.6180756 74.5309032,17.7542362 74.5309032,14.3934426 C74.5309032,11.0326491 71.3393257,8.16880966 67.147232,8.16880966 C62.9694679,8.16880966 59.7635608,11.0518157 59.7635608,14.3934426 Z" id="Shape"></path>
                        <path d="M63.5500589,24.5217295 C63.5500589,22.2402306 65.4289864,20.3907104 67.7467609,20.3907104 C70.0645354,20.3907104 71.9434629,22.2402306 71.9434629,24.5217295 L71.9434629,36.6504016 C71.9434629,38.9319005 70.0645354,40.7814208 67.7467609,40.7814208 C65.4289864,40.7814208 63.5500589,38.9319005 63.5500589,36.6504016 L63.5500589,24.5217295 Z" id="Shape"></path>
                    </g>
                    <g id="Group-11-Copy-4" transform="translate(221.825677, 0.000000)" fill="#A0003C" fill-rule="nonzero">
                        <path d="M72.3589107,33.786268 L131.808223,73.6453503 C134.844558,75.6621635 136.196838,79.4294554 135.135125,82.9137049 C134.073412,86.3979543 130.849126,88.7740695 127.219207,88.7594962 L8.29100874,88.7594631 C4.64456531,88.7740695 1.4202793,86.3979543 0.358566398,82.9137049 C-0.703146501,79.4294554 0.649133887,75.6621635 3.67109885,73.6549389 L63.1508062,33.7865737 C65.9357725,31.9180468 69.5759173,31.9183283 72.3589107,33.786268 Z M8.24876725,80.4987741 C8.24575302,80.5157436 47.9080745,80.5257995 127.235732,80.5289419 C127.2477,80.5165268 107.423883,67.213138 67.7642792,40.6187756 C67.7605731,40.616288 47.9220691,53.9096209 8.24876725,80.4987741 Z" id="Shape"></path>
                        <path d="M59.7635608,14.3934426 C59.7635608,16.6491971 57.9270152,18.4778475 55.6615213,18.4778475 C53.3960274,18.4778475 51.5594817,16.6491971 51.5594817,14.3934426 C51.5594817,6.34426182 58.6143105,0 67.147232,0 C75.6909636,0 82.7349823,6.32067942 82.7349823,14.3934426 C82.7349823,22.4662058 75.6909636,28.7868852 67.147232,28.7868852 C64.8817382,28.7868852 63.0451925,26.9582349 63.0451925,24.7024804 C63.0451925,22.4467259 64.8817382,20.6180756 67.147232,20.6180756 C71.3393257,20.6180756 74.5309032,17.7542362 74.5309032,14.3934426 C74.5309032,11.0326491 71.3393257,8.16880966 67.147232,8.16880966 C62.9694679,8.16880966 59.7635608,11.0518157 59.7635608,14.3934426 Z" id="Shape"></path>
                        <path d="M63.5500589,24.5217295 C63.5500589,22.2402306 65.4289864,20.3907104 67.7467609,20.3907104 C70.0645354,20.3907104 71.9434629,22.2402306 71.9434629,24.5217295 L71.9434629,36.6504016 C71.9434629,38.9319005 70.0645354,40.7814208 67.7467609,40.7814208 C65.4289864,40.7814208 63.5500589,38.9319005 63.5500589,36.6504016 L63.5500589,24.5217295 Z" id="Shape"></path>
                    </g>
                    <g id="Group-11-Copy-5" transform="translate(537.177856, 0.000000)" fill="#A0003C" fill-rule="nonzero">
                        <path d="M72.3589107,33.786268 L131.808223,73.6453503 C134.844558,75.6621635 136.196838,79.4294554 135.135125,82.9137049 C134.073412,86.3979543 130.849126,88.7740695 127.219207,88.7594962 L8.29100874,88.7594631 C4.64456531,88.7740695 1.4202793,86.3979543 0.358566398,82.9137049 C-0.703146501,79.4294554 0.649133887,75.6621635 3.67109885,73.6549389 L63.1508062,33.7865737 C65.9357725,31.9180468 69.5759173,31.9183283 72.3589107,33.786268 Z M8.24876725,80.4987741 C8.24575302,80.5157436 47.9080745,80.5257995 127.235732,80.5289419 C127.2477,80.5165268 107.423883,67.213138 67.7642792,40.6187756 C67.7605731,40.616288 47.9220691,53.9096209 8.24876725,80.4987741 Z" id="Shape"></path>
                        <path d="M59.7635608,14.3934426 C59.7635608,16.6491971 57.9270152,18.4778475 55.6615213,18.4778475 C53.3960274,18.4778475 51.5594817,16.6491971 51.5594817,14.3934426 C51.5594817,6.34426182 58.6143105,0 67.147232,0 C75.6909636,0 82.7349823,6.32067942 82.7349823,14.3934426 C82.7349823,22.4662058 75.6909636,28.7868852 67.147232,28.7868852 C64.8817382,28.7868852 63.0451925,26.9582349 63.0451925,24.7024804 C63.0451925,22.4467259 64.8817382,20.6180756 67.147232,20.6180756 C71.3393257,20.6180756 74.5309032,17.7542362 74.5309032,14.3934426 C74.5309032,11.0326491 71.3393257,8.16880966 67.147232,8.16880966 C62.9694679,8.16880966 59.7635608,11.0518157 59.7635608,14.3934426 Z" id="Shape"></path>
                        <path d="M63.5500589,24.5217295 C63.5500589,22.2402306 65.4289864,20.3907104 67.7467609,20.3907104 C70.0645354,20.3907104 71.9434629,22.2402306 71.9434629,24.5217295 L71.9434629,36.6504016 C71.9434629,38.9319005 70.0645354,40.7814208 67.7467609,40.7814208 C65.4289864,40.7814208 63.5500589,38.9319005 63.5500589,36.6504016 L63.5500589,24.5217295 Z" id="Shape"></path>
                    </g>
                    <path d="M7.5,9.59562842 L788,9.59562842 L788,24.5956284 L7.5,24.5956284 C3.35786438,24.5956284 5.07265313e-16,21.237764 0,17.0956284 L0,17.0956284 C-5.07265313e-16,12.9534928 3.35786438,9.59562842 7.5,9.59562842 Z" id="Rectangle-4-Copy" fill="#FFFFFF"></path>
                    <path d="M138.771576,9.59562842 L148.683157,9.59562842 L148.683157,9.65923049 C147.086052,10.7535559 146.095716,12.3752686 146.095716,14.1309013 C146.095716,16.2632186 144.259171,17.9918033 141.993677,17.9918033 C139.728183,17.9918033 137.891637,16.2632186 137.891637,14.1309013 C137.891637,12.5347219 138.202112,11.0094683 138.771576,9.59562842 Z" id="Combined-Shape-Copy-5" fill="#A0003C" fill-rule="nonzero"></path>
                    <path d="M274.265098,9.59562842 L284.176678,9.59562842 L284.176678,9.65923049 C282.579574,10.7535559 281.589238,12.3752686 281.589238,14.1309013 C281.589238,16.2632186 279.752692,17.9918033 277.487199,17.9918033 C275.221705,17.9918033 273.385159,16.2632186 273.385159,14.1309013 C273.385159,12.5347219 273.695634,11.0094683 274.265098,9.59562842 Z" id="Combined-Shape-Copy-6" fill="#A0003C" fill-rule="nonzero"></path>
                    <path d="M589.617277,9.59562842 L599.528857,9.59562842 L599.528857,9.65923049 C597.931753,10.7535559 596.941417,12.3752686 596.941417,14.1309013 C596.941417,16.2632186 595.104871,17.9918033 592.839378,17.9918033 C590.573884,17.9918033 588.737338,16.2632186 588.737338,14.1309013 C588.737338,12.5347219 589.047813,11.0094683 589.617277,9.59562842 Z" id="Combined-Shape-Copy-7" fill="#A0003C" fill-rule="nonzero"></path>
                    <g id="Group-10" transform="translate(257.797409, 75.565574)">
                        <rect id="Rectangle-13-Copy-2" fill="#FFBE32" opacity="0.900000036" x="5.99528857" y="0" width="63.5500589" height="131.939891" rx="8"></rect>
                        <rect id="Rectangle-13-Copy-3" fill="#FFBE32" x="0" y="0" width="63.5500589" height="205.106557" rx="8"></rect>
                        <rect id="Rectangle-14-Copy-10" fill="#FFBE32" x="58.753828" y="195.510929" width="4.79623086" height="26.3879781"></rect>
                        <rect id="Rectangle-14-Copy-11" fill="#FFBE32" x="52.7585395" y="195.510929" width="4.79623086" height="26.3879781"></rect>
                        <rect id="Rectangle-14-Copy-12" fill="#FFBE32" x="46.7632509" y="195.510929" width="4.79623086" height="26.3879781"></rect>
                        <rect id="Rectangle-14-Copy-13" fill="#FFBE32" x="40.7679623" y="195.510929" width="4.79623086" height="26.3879781"></rect>
                        <rect id="Rectangle-14-Copy-14" fill="#FFBE32" x="34.7726737" y="195.510929" width="4.79623086" height="26.3879781"></rect>
                        <rect id="Rectangle-14-Copy-15" fill="#FFBE32" x="28.7773852" y="195.510929" width="4.79623086" height="26.3879781"></rect>
                        <rect id="Rectangle-14-Copy-16" fill="#FFBE32" x="22.7820966" y="195.510929" width="4.79623086" height="26.3879781"></rect>
                        <rect id="Rectangle-14-Copy-17" fill="#FFBE32" x="16.786808" y="195.510929" width="4.79623086" height="26.3879781"></rect>
                        <rect id="Rectangle-14-Copy-18" fill="#FFBE32" x="10.7915194" y="195.510929" width="4.79623086" height="26.3879781"></rect>
                        <rect id="Rectangle-14-Copy-19" fill="#FFBE32" x="4.79623086" y="195.510929" width="4.79623086" height="26.3879781"></rect>
                        <g id="Group-12-Copy-3" transform="translate(49.186635, 246.100061) rotate(-3.000000) translate(-49.186635, -246.100061) translate(31.186635, 217.100061)">
                            <path d="M0,7.6373369 L8.37374732,0 L27.5979841,0 L35.9717314,7.6373369 L35.9717314,57.5737705 L0,57.5737705 L0,7.6373369 Z M18.280716,9.39979926 C19.5834464,9.39979926 20.639518,8.34769089 20.639518,7.04984945 C20.639518,5.752008 19.5834464,4.69989963 18.280716,4.69989963 C16.9779856,4.69989963 15.9219139,5.752008 15.9219139,7.04984945 C15.9219139,8.34769089 16.9779856,9.39979926 18.280716,9.39979926 Z" id="Combined-Shape" fill="#FFFFFF"></path>
                            <path d="M27.6477422,41.7989347 C27.0865725,41.7609533 27.234806,40.4384964 26.0479451,40.585252 C25.2007641,40.6873312 25.1075887,41.6938726 25.0344646,42.4796178 C24.9513479,43.3594881 24.8496359,44.1029433 24.5901611,43.9794539 C24.3721784,43.8787004 24.4289571,43.4785364 24.3378332,42.254712 C24.2318198,40.852514 23.8861842,40.0813516 23.0550176,39.9476542 C22.0342577,39.7863823 21.6393875,41.3293701 21.4623675,41.9289863 C21.2882593,42.5211787 20.981535,42.7914236 20.7865815,42.7914236 C20.6151864,42.7914236 20.3320207,42.7109533 20.2517496,42.0092578 C20.1715447,41.3017291 20.7526995,40.0879138 21.5555429,39.2393965 C23.9694332,36.6899998 27.4376344,34.8913499 27.4376344,30.9493004 C27.4376344,27.2293727 24.7663869,25.2619605 22.3095486,25.2619605 C20.428174,25.2619605 19.3816056,26.3669355 19.0177055,26.7283889 C18.4328448,27.3102407 18.178267,27.9587755 17.9546594,27.9587755 C17.7339635,27.9587755 17.4823635,27.3102407 16.899819,26.7283889 C16.536316,26.3669355 15.4870344,25.2619605 13.6085054,25.2619605 C11.1508729,25.2619605 8.48035333,27.2293727 8.48035333,30.9493004 C8.48035333,34.8913499 11.9456429,36.6899998 14.3617831,39.2393965 C15.1645603,40.0879138 15.7306933,41.2971554 15.6641205,42.0092578 C15.5909302,42.7730626 15.297044,42.7387931 15.1617148,42.7351474 C15.0842892,42.7285189 14.7072202,42.5948879 14.4764656,41.7252255 C14.2657622,40.9291398 14.0005963,40.1996044 13.1196656,40.1514151 C12.1406626,40.0914932 11.8834377,41.4447064 11.8001887,42.5174667 C11.7271969,43.4398921 11.7021825,45.172058 11.3558852,45.0289481 C11.1537185,44.9442356 11.054852,42.9593241 10.890604,41.4375476 C10.7630834,40.2593937 10.6075706,37.742278 9.92245377,37.293063 C9.09307396,36.7497891 8.36567088,37.3596133 8.13710008,38.3243287 C7.9686168,39.0458436 7.94214652,39.642477 7.72634763,40.6136883 C7.56520984,41.3293701 7.38375613,41.791577 6.68216156,41.791577 L4.71760412,41.8025141 L4.71760412,42.8681819 L5.16766493,42.8681819 C7.70841402,42.973244 8.42582457,42.7139361 8.72910772,41.5637547 C8.99930302,40.5362672 9.1060444,39.3583785 9.16626427,39.0290734 C9.26023373,38.5309398 9.56828153,38.2818399 9.70089759,39.6709134 C9.76905854,40.3610753 9.83344748,41.2416747 9.93747565,42.1355974 C10.2492293,44.7652655 10.3302945,46.5822765 11.4785087,46.6764015 C12.7512656,46.7852419 12.7584787,44.4461683 12.8423895,43.5202961 C12.8938742,42.9316169 12.96991,41.2446575 13.2687594,41.4273396 C13.6809016,41.6761744 13.5226093,43.7904084 15.4820051,43.8787004 C16.6036829,43.9304692 17.0144353,43.0790352 17.0875594,42.1355974 C17.1549263,41.2446575 16.3077452,39.9227973 15.1516561,38.7837517 C12.3692996,36.0386811 10.4290948,34.6248169 10.4290948,31.598498 C10.4290948,28.5096058 12.5800029,26.97729 14.460782,26.97729 C14.8735859,26.97729 16.1386002,26.9072927 17.6664643,29.3866258 C17.7309856,29.4909588 17.8537415,29.5341105 17.9575049,29.5508807 C18.0637169,29.5341105 18.1862743,29.4909588 18.2486118,29.3866258 C19.7766082,26.9072927 21.0408946,26.97729 21.4574705,26.97729 C23.3352055,26.97729 25.4889592,28.5096058 25.4889592,31.598498 C25.4889592,34.6248169 23.5330046,35.9640439 20.7506481,38.7098437 C19.5967427,39.8453761 18.8068698,41.2416747 18.8306269,42.1355974 C18.8512075,42.9942564 19.3136432,43.9304692 20.4359165,43.8787004 C22.329666,43.7904084 22.2227923,42.2370138 22.6105818,41.3994336 C22.8213513,40.9502848 23.0914142,40.9502848 23.1587811,41.6263942 C23.2311773,42.3356463 23.2311773,42.5386117 23.3037058,43.25721 C23.3974768,44.1832148 23.7250464,45.2246885 24.561507,45.1435553 C25.2788514,45.0733593 25.6916553,44.6285853 25.8271831,43.2959868 C25.8658958,42.9068262 25.8945499,42.7323634 25.943189,42.1669503 C25.9727034,41.8477206 26.0709743,41.602399 26.2091491,41.6485335 C26.3539415,41.7009651 26.4808003,42.029541 26.5797991,42.2508675 C26.8758029,42.913985 27.5595962,42.8789864 27.7179546,42.8826321 C28.4116743,42.8966183 28.6532817,42.8854823 28.6532817,42.8854823 L30.6644268,42.8789864 L30.6644268,41.837579 C29.5082053,41.8339333 27.9852382,41.8237917 27.6477422,41.7989347" id="Fill-4" fill="#E3001F"></path>
                        </g>
                    </g>
                    <g id="Group-10-Copy" transform="translate(43.365135, 67.169399)">
                        <path d="M201.578439,282.142818 L205.514684,360.277146 C205.820349,366.344584 201.149509,371.511004 195.082071,371.816669 C194.897732,371.825956 194.713189,371.830601 194.528616,371.830601 L34.0907275,371.830601 C28.0155953,371.830601 23.0907275,366.905733 23.0907275,360.830601 C23.0907275,360.646028 23.095373,360.461485 23.1046596,360.277146 L27.0409043,282.142818 L11.6610648,282.142818 C5.58593256,282.142818 0.661064806,277.21795 0.661064806,271.142818 C0.661064806,270.597072 0.70167909,270.052083 0.782571189,269.512365 L39.7724005,9.36954711 C40.5795423,3.98424161 45.205438,1.3434812e-14 50.6508942,1.24344979e-14 L177.968222,1.77635684e-15 C183.413678,1.52856528e-14 188.039574,3.98424161 188.846716,9.36954711 L227.836545,269.512365 C228.737019,275.520391 224.59653,281.120837 218.588504,282.021312 C218.048787,282.102204 217.503797,282.142818 216.958051,282.142818 L201.578439,282.142818 Z" id="Combined-Shape" fill="#1F3853"></path>
                        <ellipse id="Oval-4" fill="#FFFFFF" cx="111.912839" cy="59.3729508" rx="5.39575972" ry="5.39754098"></ellipse>
                        <ellipse id="Oval-4-Copy" fill="#FFFFFF" cx="111.912839" cy="112.148907" rx="5.39575972" ry="5.39754098"></ellipse>
                        <ellipse id="Oval-4-Copy-2" fill="#FFFFFF" cx="111.912839" cy="163.72541" rx="5.39575972" ry="5.39754098"></ellipse>
                        <ellipse id="Oval-4-Copy-3" fill="#FFFFFF" cx="111.912839" cy="218.900273" rx="5.39575972" ry="5.39754098"></ellipse>
                        <ellipse id="Oval-4-Copy-4" fill="#FFFFFF" cx="111.912839" cy="270.476776" rx="5.39575972" ry="5.39754098"></ellipse>
                    </g>
                    <g id="Group-12" transform="translate(493.011779, 45.579235)">
                        <path d="M191.650177,104.772131 L191.650177,227.292372 C191.650177,232.262935 187.620739,236.292372 182.650177,236.292372 L45.971729,236.292372 C41.0011663,236.292372 36.971729,232.262935 36.971729,227.292372 L36.9717282,105.295243 L7.92789856,97.7256447 C2.58357909,96.3327722 -0.619701561,90.871199 0.773170971,85.5268795 C0.999352678,84.6590418 1.34124933,83.8255742 1.78966333,83.0488984 L37.0058458,22.0526804 C38.4969607,19.4699937 40.9661712,17.804082 43.6754517,17.2526986 C61.1773313,9.2981717 74.5305082,5.20538476 83.7349823,4.97433782 C87.3015404,4.88481154 93.4230557,12.7280544 99.4788239,20.3907104 L127.404699,20.3907104 C132.852271,12.7422979 138.36399,4.91403702 141.289753,4.97433782 C151.234957,5.17931128 165.623802,9.27141649 184.456289,17.2506535 C185.35514,17.5094627 186.218335,17.893728 187.01727,18.395785 C188.922916,19.4525696 190.357992,21.1534759 191.095411,23.1536146 L225.564683,82.856146 C226.013097,83.6328218 226.354994,84.4662894 226.581175,85.3341271 C227.974048,90.6784466 224.770767,96.1400198 219.426448,97.5328924 L191.650177,104.772131 Z" id="Combined-Shape" fill="#8DDFF3"></path>
                        <g id="Group-11" transform="translate(70.545347, 0.000000)" fill="#7ACEE3">
                            <path d="M7.09421336,13.806966 L42.6303436,13.806966 C44.8394826,13.806966 46.6303436,15.597827 46.6303436,17.806966 L46.6303436,27.0763028 C46.6303436,29.2854418 44.8394826,31.0763028 42.6303436,31.0763028 C42.4098458,31.0763028 42.1897256,31.0580706 41.9722327,31.0217926 L3.80213773,24.65499 C1.76350702,24.3149447 0.386531432,22.3866469 0.72657668,20.3480162 C0.824656197,19.7600123 1.06178872,19.203947 1.41822959,18.7261206 L3.88801147,15.4152575 C4.64299824,14.4031609 5.83153979,13.806966 7.09421336,13.806966 Z" id="Rectangle-27" transform="translate(23.652669, 22.441634) rotate(42.000000) translate(-23.652669, -22.441634) "></path>
                            <path d="M46.7593187,13.806966 L82.295449,13.806966 C84.504588,13.806966 86.295449,15.597827 86.295449,17.806966 L86.295449,27.0763028 C86.295449,29.2854418 84.504588,31.0763028 82.295449,31.0763028 C82.0749512,31.0763028 81.854831,31.0580706 81.6373381,31.0217926 L43.4672431,24.65499 C41.4286124,24.3149447 40.0516368,22.3866469 40.391682,20.3480162 C40.4897616,19.7600123 40.7268941,19.203947 41.0833349,18.7261206 L43.5531168,15.4152575 C44.3081036,14.4031609 45.4966452,13.806966 46.7593187,13.806966 Z" id="Rectangle-27-Copy" transform="translate(63.317774, 22.441634) scale(-1, 1) rotate(42.000000) translate(-63.317774, -22.441634) "></path>
                        </g>
                    </g>
                </g>
                <g id="Group-12-Copy-2" transform="translate(44.000000, 363.000000) rotate(5.000000) translate(-44.000000, -363.000000) translate(26.000000, 334.000000)">
                    <path d="M0,7.69387755 L8.38032787,0 L27.6196721,0 L36,7.69387755 L36,58 L0,58 L0,7.69387755 Z M18.295082,9.46938776 C19.5988361,9.46938776 20.6557377,8.40949043 20.6557377,7.10204082 C20.6557377,5.7945912 19.5988361,4.73469388 18.295082,4.73469388 C16.9913278,4.73469388 15.9344262,5.7945912 15.9344262,7.10204082 C15.9344262,8.40949043 16.9913278,9.46938776 18.295082,9.46938776 Z" id="Combined-Shape" fill="#FFFFFF"></path>
                    <path d="M27.6694693,42.1083801 C27.1078586,42.0701175 27.2562086,40.7378703 26.068415,40.8857123 C25.2205682,40.9885472 25.1273196,42.0025402 25.054138,42.7941025 C24.9709561,43.6804866 24.8691641,44.4294458 24.6094854,44.3050422 C24.3913314,44.2035427 24.4481547,43.8004162 24.3569592,42.5675316 C24.2508624,41.1549529 23.9049552,40.3780814 23.0731355,40.2433943 C22.0515735,40.0809284 21.6563929,41.6353392 21.4792338,42.2393946 C21.3049888,42.835971 20.9980235,43.1082166 20.8029167,43.1082166 C20.631387,43.1082166 20.3479987,43.0271506 20.2676645,42.3202602 C20.1873966,41.6074936 20.7690081,40.3846922 21.5724824,39.5298931 C23.9882697,36.9616229 27.4591964,35.1496571 27.4591964,31.1784239 C27.4591964,27.4309569 24.7858497,25.4489796 22.3270806,25.4489796 C20.4442276,25.4489796 19.3968367,26.5621349 19.0326507,26.9262642 C18.4473304,27.5124236 18.1925525,28.1657596 17.9687691,28.1657596 C17.7478998,28.1657596 17.4961021,27.5124236 16.9130998,26.9262642 C16.5493112,26.5621349 15.499205,25.4489796 13.6191997,25.4489796 C11.1596359,25.4489796 8.48701766,27.4309569 8.48701766,31.1784239 C8.48701766,35.1496571 11.9550304,36.9616229 14.3730694,39.5298931 C15.1764775,40.3846922 15.7430553,41.6028861 15.6764303,42.3202602 C15.6031824,43.0897197 15.3090653,43.0551965 15.1736297,43.0515238 C15.0961433,43.0448462 14.7187779,42.9102259 14.487842,42.0341252 C14.276973,41.2321459 14.0115987,40.4972097 13.1299758,40.4486636 C12.1502034,40.3882981 11.8927764,41.7515294 11.8094619,42.8322315 C11.7364128,43.7614858 11.7113787,45.5064753 11.3648093,45.362306 C11.1624837,45.2769663 11.0635395,43.2773601 10.8991624,41.7443176 C10.7715417,40.5574416 10.6159066,38.0216912 9.93025138,37.5691506 C9.1002198,37.0218548 8.37224508,37.6361936 8.14349466,38.608051 C7.97487897,39.3349073 7.9483879,39.9359577 7.73241941,40.9143591 C7.571155,41.6353392 7.38955869,42.100968 6.68741277,42.100968 L4.72131148,42.111986 L4.72131148,43.1855432 L5.17172596,43.1855432 C7.71447171,43.2913831 8.43244605,43.0301555 8.73596753,41.871459 C9.00637517,40.8363648 9.11320042,39.649756 9.17346762,39.318013 C9.26751093,38.8161916 9.57580081,38.5652476 9.70852109,39.9646046 C9.7767356,40.659876 9.84117514,41.5469946 9.94528506,42.4475352 C10.2572837,45.0966712 10.3384126,46.9271339 11.4875292,47.0219557 C12.7612862,47.1316018 12.7685051,44.7752117 12.8524818,43.8424851 C12.9040069,43.2494478 12.9801025,41.5499995 13.2791867,41.7340341 C13.6916528,41.984711 13.5332361,44.1145971 15.4941717,44.2035427 C16.6167309,44.2556947 17.0278062,43.3979575 17.1009878,42.4475352 C17.1684076,41.5499995 16.3205607,40.2183533 15.1635631,39.0708752 C12.37902,36.3054823 10.4372905,34.881151 10.4372905,31.8324277 C10.4372905,28.7206678 12.589889,27.1770079 14.472146,27.1770079 C14.8852743,27.1770079 16.1512828,27.1064925 17.6803476,29.6041806 C17.7449196,29.709286 17.8677719,29.7527571 17.9716169,29.7696514 C18.0779124,29.7527571 18.200566,29.709286 18.2629525,29.6041806 C19.7921498,27.1064925 21.0574297,27.1770079 21.474333,27.1770079 C23.3535435,27.1770079 25.5089898,28.7206678 25.5089898,31.8324277 C25.5089898,34.881151 23.5514981,36.2302925 20.7669551,38.99642 C19.6121429,40.140359 18.8216493,41.5469946 18.845425,42.4475352 C18.8660218,43.312551 19.3288209,44.2556947 20.4519762,44.2035427 C22.3472139,44.1145971 22.2402561,42.5497024 22.6283504,41.7059214 C22.8392856,41.2534475 23.1095607,41.2534475 23.1769805,41.9345623 C23.2494336,42.6490651 23.2494336,42.8535331 23.3220192,43.5774513 C23.4158638,44.5103115 23.7436908,45.5594954 24.5808088,45.4777616 C25.2987169,45.4070459 25.7118452,44.9589792 25.8474795,43.6165152 C25.8862227,43.2244735 25.9148993,43.0487192 25.9635766,42.4791203 C25.9931142,42.1575272 26.0914623,41.9103894 26.2297457,41.9568655 C26.3746519,42.0096852 26.5016103,42.3406937 26.6006869,42.5636586 C26.8969234,43.2316853 27.5812541,43.1964276 27.7397369,43.2001003 C28.4340017,43.21419 28.675799,43.2029717 28.675799,43.2029717 L30.6885246,43.1964276 L30.6885246,42.1473105 C29.5313945,42.1436378 28.0072305,42.1334211 27.6694693,42.1083801" id="Fill-4" fill="#E3001F"></path>
                </g>
                <g id="Group-12-Copy-4" transform="translate(494.000000, 159.000000) rotate(5.000000) translate(-494.000000, -159.000000) translate(476.000000, 130.000000)">
                    <path d="M0,7.69387755 L8.38032787,0 L27.6196721,0 L36,7.69387755 L36,58 L0,58 L0,7.69387755 Z M18.295082,9.46938776 C19.5988361,9.46938776 20.6557377,8.40949043 20.6557377,7.10204082 C20.6557377,5.7945912 19.5988361,4.73469388 18.295082,4.73469388 C16.9913278,4.73469388 15.9344262,5.7945912 15.9344262,7.10204082 C15.9344262,8.40949043 16.9913278,9.46938776 18.295082,9.46938776 Z" id="Combined-Shape" fill="#FFFFFF"></path>
                    <path d="M27.6694693,42.1083801 C27.1078586,42.0701175 27.2562086,40.7378703 26.068415,40.8857123 C25.2205682,40.9885472 25.1273196,42.0025402 25.054138,42.7941025 C24.9709561,43.6804866 24.8691641,44.4294458 24.6094854,44.3050422 C24.3913314,44.2035427 24.4481547,43.8004162 24.3569592,42.5675316 C24.2508624,41.1549529 23.9049552,40.3780814 23.0731355,40.2433943 C22.0515735,40.0809284 21.6563929,41.6353392 21.4792338,42.2393946 C21.3049888,42.835971 20.9980235,43.1082166 20.8029167,43.1082166 C20.631387,43.1082166 20.3479987,43.0271506 20.2676645,42.3202602 C20.1873966,41.6074936 20.7690081,40.3846922 21.5724824,39.5298931 C23.9882697,36.9616229 27.4591964,35.1496571 27.4591964,31.1784239 C27.4591964,27.4309569 24.7858497,25.4489796 22.3270806,25.4489796 C20.4442276,25.4489796 19.3968367,26.5621349 19.0326507,26.9262642 C18.4473304,27.5124236 18.1925525,28.1657596 17.9687691,28.1657596 C17.7478998,28.1657596 17.4961021,27.5124236 16.9130998,26.9262642 C16.5493112,26.5621349 15.499205,25.4489796 13.6191997,25.4489796 C11.1596359,25.4489796 8.48701766,27.4309569 8.48701766,31.1784239 C8.48701766,35.1496571 11.9550304,36.9616229 14.3730694,39.5298931 C15.1764775,40.3846922 15.7430553,41.6028861 15.6764303,42.3202602 C15.6031824,43.0897197 15.3090653,43.0551965 15.1736297,43.0515238 C15.0961433,43.0448462 14.7187779,42.9102259 14.487842,42.0341252 C14.276973,41.2321459 14.0115987,40.4972097 13.1299758,40.4486636 C12.1502034,40.3882981 11.8927764,41.7515294 11.8094619,42.8322315 C11.7364128,43.7614858 11.7113787,45.5064753 11.3648093,45.362306 C11.1624837,45.2769663 11.0635395,43.2773601 10.8991624,41.7443176 C10.7715417,40.5574416 10.6159066,38.0216912 9.93025138,37.5691506 C9.1002198,37.0218548 8.37224508,37.6361936 8.14349466,38.608051 C7.97487897,39.3349073 7.9483879,39.9359577 7.73241941,40.9143591 C7.571155,41.6353392 7.38955869,42.100968 6.68741277,42.100968 L4.72131148,42.111986 L4.72131148,43.1855432 L5.17172596,43.1855432 C7.71447171,43.2913831 8.43244605,43.0301555 8.73596753,41.871459 C9.00637517,40.8363648 9.11320042,39.649756 9.17346762,39.318013 C9.26751093,38.8161916 9.57580081,38.5652476 9.70852109,39.9646046 C9.7767356,40.659876 9.84117514,41.5469946 9.94528506,42.4475352 C10.2572837,45.0966712 10.3384126,46.9271339 11.4875292,47.0219557 C12.7612862,47.1316018 12.7685051,44.7752117 12.8524818,43.8424851 C12.9040069,43.2494478 12.9801025,41.5499995 13.2791867,41.7340341 C13.6916528,41.984711 13.5332361,44.1145971 15.4941717,44.2035427 C16.6167309,44.2556947 17.0278062,43.3979575 17.1009878,42.4475352 C17.1684076,41.5499995 16.3205607,40.2183533 15.1635631,39.0708752 C12.37902,36.3054823 10.4372905,34.881151 10.4372905,31.8324277 C10.4372905,28.7206678 12.589889,27.1770079 14.472146,27.1770079 C14.8852743,27.1770079 16.1512828,27.1064925 17.6803476,29.6041806 C17.7449196,29.709286 17.8677719,29.7527571 17.9716169,29.7696514 C18.0779124,29.7527571 18.200566,29.709286 18.2629525,29.6041806 C19.7921498,27.1064925 21.0574297,27.1770079 21.474333,27.1770079 C23.3535435,27.1770079 25.5089898,28.7206678 25.5089898,31.8324277 C25.5089898,34.881151 23.5514981,36.2302925 20.7669551,38.99642 C19.6121429,40.140359 18.8216493,41.5469946 18.845425,42.4475352 C18.8660218,43.312551 19.3288209,44.2556947 20.4519762,44.2035427 C22.3472139,44.1145971 22.2402561,42.5497024 22.6283504,41.7059214 C22.8392856,41.2534475 23.1095607,41.2534475 23.1769805,41.9345623 C23.2494336,42.6490651 23.2494336,42.8535331 23.3220192,43.5774513 C23.4158638,44.5103115 23.7436908,45.5594954 24.5808088,45.4777616 C25.2987169,45.4070459 25.7118452,44.9589792 25.8474795,43.6165152 C25.8862227,43.2244735 25.9148993,43.0487192 25.9635766,42.4791203 C25.9931142,42.1575272 26.0914623,41.9103894 26.2297457,41.9568655 C26.3746519,42.0096852 26.5016103,42.3406937 26.6006869,42.5636586 C26.8969234,43.2316853 27.5812541,43.1964276 27.7397369,43.2001003 C28.4340017,43.21419 28.675799,43.2029717 28.675799,43.2029717 L30.6885246,43.1964276 L30.6885246,42.1473105 C29.5313945,42.1436378 28.0072305,42.1334211 27.6694693,42.1083801" id="Fill-4" fill="#E3001F"></path>
                </g>
            </g>
        </g>
    </g>
</svg>