<?xml version="1.0" encoding="UTF-8"?>
<svg width="88px" height="72px" viewBox="0 0 88 72" version="1.1" xmlns="http://www.w3.org/2000/svg" xmlns:xlink="http://www.w3.org/1999/xlink">
    <!-- Generator: Sketch 48.2 (47327) - http://www.bohemiancoding.com/sketch -->
    <title>logo</title>
    <desc>Created with Sketch.</desc>
    <defs></defs>
    <g id="Desktop-HD" stroke="none" stroke-width="1" fill="none" fill-rule="evenodd" transform="translate(-35.000000, -25.000000)">
        <g id="big_beat" transform="translate(-75.000000, -87.000000)" fill="#FFFFFF">
            <g id="Branding/Logo" transform="translate(110.204082, 112.837607)">
                <path d="M77.1014464,54.5395701 C75.214541,54.4143059 75.7129689,50.052793 71.7222085,50.5367982 C68.8736044,50.8734596 68.5603069,54.1930713 68.3144306,56.784489 C68.034955,59.6863346 67.6929534,62.1382783 66.8204822,61.7310056 C66.0875262,61.3987165 66.2784419,60.0789604 65.9720423,56.042741 C65.6155774,51.4182388 64.453395,48.8749156 61.6586389,48.4339767 C58.2263847,47.9020955 56.898653,52.9909281 56.3034323,54.9684854 C55.7180021,56.9215582 54.686657,57.8128362 54.0311353,57.8128362 C53.4548282,57.8128362 52.5026975,57.5474422 52.2327899,55.2332236 C51.9631048,52.8997672 53.917209,48.8965581 56.6167298,46.0981156 C64.7333156,37.6901086 76.3949694,31.7580925 76.3949694,18.7570633 C76.3949694,6.4886003 67.4130328,0 59.1520364,0 C52.826008,0 49.306974,3.64424942 48.0833781,4.83633653 C46.1168133,6.75530602 45.260808,8.89419842 44.5089385,8.89419842 C43.7668595,8.89419842 42.9208673,6.75530602 40.9620904,4.83633653 C39.7398296,3.64424942 36.2116726,0 29.8952123,0 C21.6315457,0 12.6520567,6.4886003 12.6520567,18.7570633 C12.6520567,31.7580925 24.30392,37.6901086 32.4280712,46.0981156 C35.1273695,48.8965581 37.0309633,52.884683 36.8071158,55.2332236 C36.5610171,57.7522809 35.5728394,57.6392589 35.1178015,57.6272353 C34.8574619,57.6053742 33.5895861,57.1646539 32.8136853,54.2964744 C32.1052057,51.6709534 31.2135984,49.264918 28.251513,49.1059877 C24.9596641,48.9083631 24.0947583,53.3713116 23.8148376,56.909316 C23.5694064,59.95151 23.4852967,65.664259 22.3208892,65.1922774 C21.6411137,64.9128922 21.3086802,58.3665785 20.7564043,53.3477016 C20.3276229,49.4621054 19.8047187,41.160562 17.5010475,39.6790336 C14.7122992,37.8872959 12.2664426,39.8985193 11.4978847,43.0801874 C10.9313681,45.4597707 10.8423631,47.4274905 10.1167501,50.6305825 C9.5749323,52.9909281 8.96480322,54.5153043 6.60572645,54.5153043 L0,54.5513751 L0,58.0659881 L1.51330702,58.0659881 C10.0564492,58.4124869 12.4687064,57.5572797 13.4884809,53.7639374 C14.3969991,50.3752445 14.7559117,46.4905228 14.958398,45.4044621 C15.2743656,43.7615986 16.310161,42.9400576 16.7560759,47.5212748 C16.9852637,49.797455 17.2017683,52.7017054 17.5515578,55.6498966 C18.5998139,64.3226418 18.8723916,70.3152132 22.7332047,70.6256412 C27.0127863,70.9846009 27.0370401,63.2702473 27.3191859,60.2166855 C27.4923005,58.275199 27.7479673,52.7115429 28.7528335,53.3140355 C30.1386409,54.1347021 29.6063911,61.1075263 36.1947616,61.3987165 C39.9663473,61.5694518 41.3474819,58.7613904 41.5933581,55.6498966 C41.8198758,52.7115429 38.9712717,48.3519975 35.0839796,44.5953819 C25.7284445,35.5420345 19.2046027,30.8790567 19.2046027,20.8981418 C19.2046027,10.7108578 26.4369241,5.65722174 32.7609498,5.65722174 C34.1489824,5.65722174 38.4025299,5.42636827 43.5398969,13.6033032 C43.7568465,13.9473973 44.169607,14.0897132 44.5185065,14.1450219 C44.875639,14.0897132 45.287732,13.9473973 45.4973387,13.6033032 C50.6351507,5.42636827 54.8862506,5.65722174 56.2869663,5.65722174 C62.6007565,5.65722174 69.842646,10.7108578 69.842646,20.8981418 C69.842646,30.8790567 63.2658461,35.2958782 53.9103111,44.3516304 C50.0303619,48.0966596 47.3744535,52.7017054 47.4543355,55.6498966 C47.5235369,58.4817866 49.0784537,61.5694518 52.852042,61.3987165 C59.2196801,61.1075263 58.8603226,55.9843718 60.1642454,53.2220001 C60.8729475,51.7406904 61.7810207,51.7406904 62.0075384,53.970525 C62.250967,56.3096653 62.250967,56.979053 62.4948406,59.3490174 C62.8101407,62.4030165 63.9115772,65.8378364 66.7241343,65.5702562 C69.136169,65.3387469 70.5242015,63.8718655 70.979907,59.476905 C71.1100768,58.1934384 71.2064246,57.6180536 71.3699713,55.7532997 C71.4692118,54.700468 71.7996428,53.8913878 72.2642487,54.0435412 C72.7511059,54.2164627 73.1776623,55.3001186 73.5105408,56.0300616 C74.5058389,58.2170484 76.8050599,58.1016217 77.3375321,58.1136453 C79.6701299,58.1597723 80.4825228,58.1230456 80.4825228,58.1230456 L87.244898,58.1016217 L87.244898,54.6670205 C83.3571608,54.6549968 78.2362598,54.6215493 77.1014464,54.5395701" id="Logo"></path>
            </g>
        </g>
    </g>
</svg>