
<svg version="1.1" id="bigbeat_x5F_1" xmlns="http://www.w3.org/2000/svg" xmlns:xlink="http://www.w3.org/1999/xlink" x="0px"
	 y="0px" viewBox="0 0 425.197 425.197" enable-background="new 0 0 425.197 425.197" xml:space="preserve">
<radialGradient id="_x5F_outer_x5F_circle2_1_" cx="377.7882" cy="655.7037" r="283.2008" gradientTransform="matrix(-0.5736 -0.8192 0.6963 -0.4875 -26.7648 840.1437)" gradientUnits="userSpaceOnUse">
	<stop  offset="0.4" style="stop-color:#FF0030"/>
	<stop  offset="0.4701" style="stop-color:#F90030"/>
	<stop  offset="0.5619" style="stop-color:#E90030"/>
	<stop  offset="0.6657" style="stop-color:#CE0031"/>
	<stop  offset="0.7775" style="stop-color:#A80032"/>
	<stop  offset="0.85" style="stop-color:#8C0032"/>
</radialGradient>
<path id="_x5F_outer_x5F_circle2" fill="url(#_x5F_outer_x5F_circle2_1_)" d="M391.111,262.864
	c35.739-98.191-11.819-193.725-90.753-222.455C250.554,22.282,192.652,8.068,127.596,76.498
	C68.969,138.165,30.35,142.91,16.601,217.719C2.068,296.797,61.307,369.473,152.627,389.168
	C258.443,411.99,355.372,361.056,391.111,262.864z"/>
<radialGradient id="outer_x5F_circle1_1_" cx="275.2244" cy="440.3097" r="212.6535" gradientTransform="matrix(-0.7071 -0.7071 0.601 -0.601 142.3556 669.8795)" gradientUnits="userSpaceOnUse">
	<stop  offset="0.4" style="stop-color:#FF0030"/>
	<stop  offset="0.4701" style="stop-color:#F90030"/>
	<stop  offset="0.5619" style="stop-color:#E90030"/>
	<stop  offset="0.6657" style="stop-color:#CE0031"/>
	<stop  offset="0.7775" style="stop-color:#A80032"/>
	<stop  offset="0.85" style="stop-color:#8C0032"/>
</radialGradient>
<path id="outer_x5F_circle1" fill="url(#outer_x5F_circle1_1_)" d="M361.518,230.622c14.395-81.639-37.655-154.059-109.572-166.74
	c-49.96-8.809-100.821,8.159-133.534,56.038c-27.461,40.193-60.109,58.622-61.258,114.072
	c-1.554,65.355,54.5,120.979,132.82,125.099C275.701,363.493,347.123,312.261,361.518,230.622z"/>
<radialGradient id="inner_x5F_circle_1_" cx="211.4895" cy="210.568" r="152.1396" gradientTransform="matrix(-0.8192 -0.5736 0.4875 -0.6963 282.0713 478.4875)" gradientUnits="userSpaceOnUse">
	<stop  offset="0.4" style="stop-color:#FF0030"/>
	<stop  offset="0.4701" style="stop-color:#F90030"/>
	<stop  offset="0.5619" style="stop-color:#E90030"/>
	<stop  offset="0.6657" style="stop-color:#CE0031"/>
	<stop  offset="0.7775" style="stop-color:#A80032"/>
	<stop  offset="0.85" style="stop-color:#8C0032"/>
</radialGradient>
<path id="inner_x5F_circle" fill="url(#inner_x5F_circle_1_)" d="M327.228,210.249c0-61.304-50.305-112.36-112.36-112.36
	c-48.461,0-83.195,44.765-93.55,63.749c-5.895,10.807-29.366,40.672-25.039,75.287c6.248,49.984,55.448,92.042,118.588,85.684
	S327.228,271.553,327.228,210.249z"/>
<path id="logo" fill="#FFFFFF" d="M255.345,233.422c-2.486-0.168-1.829-6.016-7.086-5.367c-3.753,0.452-4.165,4.903-4.489,8.377
	c-0.368,3.891-0.819,7.179-1.968,6.633c-0.965-0.446-0.714-2.216-1.118-7.628c-0.47-6.201-2-9.611-5.682-10.202
	c-4.522-0.713-6.271,6.11-7.055,8.762c-0.771,2.619-2.13,3.814-2.994,3.814c-0.759,0-2.014-0.356-2.369-3.458
	c-0.356-3.129,2.219-8.497,5.775-12.249c10.692-11.274,26.055-19.228,26.055-36.661c0-16.451-11.833-25.151-22.716-25.151
	c-8.334,0-12.969,4.887-14.581,6.485c-2.591,2.574-3.718,5.441-4.709,5.441c-0.978,0-2.092-2.868-4.672-5.441
	c-1.61-1.598-6.258-6.485-14.579-6.485c-10.886,0-22.716,8.701-22.716,25.151c0,17.433,15.35,25.387,26.052,36.661
	c3.556,3.752,6.064,9.1,5.769,12.249c-0.324,3.378-1.625,3.226-2.225,3.21c-0.343-0.029-2.014-0.62-3.036-4.466
	c-0.933-3.521-2.108-6.747-6.01-6.96c-4.337-0.264-5.476,5.72-5.845,10.464c-0.324,4.079-0.435,11.739-1.968,11.106
	c-0.896-0.374-1.333-9.152-2.061-15.882c-0.565-5.21-1.253-16.341-4.288-18.328c-3.674-2.402-6.896,0.295-7.908,4.561
	c-0.747,3.191-0.864,5.829-1.82,10.124c-0.713,3.165-1.518,5.209-4.625,5.209l-8.702,0.049v4.712h1.994
	c11.255,0.465,14.432-0.682,15.775-5.768c1.197-4.543,1.67-9.753,1.937-11.209c0.416-2.202,1.78-3.304,2.368,2.839
	c0.302,3.052,0.587,6.946,1.048,10.899c1.381,11.629,1.74,19.664,6.826,20.08c5.638,0.481,5.67-9.863,6.042-13.957
	c0.228-2.603,0.565-10.063,1.889-9.256c1.825,1.101,1.124,10.45,9.803,10.841c4.969,0.229,6.788-3.536,7.112-7.708
	c0.299-3.94-3.454-9.786-8.575-14.823c-12.324-12.139-20.919-18.392-20.919-31.775c0-13.66,9.528-20.436,17.859-20.436
	c1.828,0,7.432-0.31,14.2,10.655c0.286,0.462,0.829,0.652,1.289,0.727c0.47-0.074,1.013-0.265,1.289-0.727
	c6.769-10.964,12.369-10.655,14.214-10.655c8.318,0,17.858,6.776,17.858,20.436c0,13.383-8.664,19.306-20.989,31.448
	c-5.112,5.022-8.61,11.197-8.505,15.15c0.091,3.797,2.14,7.937,7.111,7.708c8.388-0.391,7.915-7.26,9.633-10.964
	c0.933-1.986,2.13-1.986,2.428,1.005c0.32,3.136,0.32,4.034,0.642,7.212c0.416,4.095,1.867,8.7,5.572,8.341
	c3.178-0.31,5.006-2.277,5.607-8.17c0.171-1.721,0.298-2.493,0.514-4.993c0.13-1.411,0.566-2.496,1.178-2.292
	c0.641,0.232,1.203,1.685,1.642,2.664c1.311,2.933,4.34,2.778,5.042,2.794c3.073,0.062,4.143,0.013,4.143,0.013l8.909-0.029v-4.605
	C263.586,233.577,256.84,233.532,255.345,233.422"/>
</svg>
