<?xml version="1.0" encoding="UTF-8"?>
<svg width="194px" height="183px" viewBox="0 0 194 183" version="1.1" xmlns="http://www.w3.org/2000/svg" xmlns:xlink="http://www.w3.org/1999/xlink">
    <!-- Generator: Sketch 49.1 (51147) - http://www.bohemiancoding.com/sketch -->
    <title>Group</title>
    <desc>Created with Sketch.</desc>
    <defs>
        <radialGradient cx="50%" cy="50%" fx="50%" fy="50%" r="52.919708%" gradientTransform="translate(0.500000,0.500000),scale(0.944828,1.000000),translate(-0.500000,-0.500000)" id="radialGradient-1">
            <stop stop-color="#000000" stop-opacity="0" offset="0%"></stop>
            <stop stop-color="#000000" stop-opacity="0.15" offset="84.9788744%"></stop>
            <stop stop-color="#000000" stop-opacity="0.4" offset="100%"></stop>
        </radialGradient>
    </defs>
    <g id="SCP-Tests" stroke="none" stroke-width="1" fill="none" fill-rule="evenodd">
        <g id="Artboard" transform="translate(-34.000000, -205.000000)" fill-rule="nonzero">
            <g id="Group" transform="translate(34.000000, 205.000000)">
                <path d="M193.333333,91.0745052 C193.333333,41.3871861 151.308496,0 99.4770278,0 C58.9975283,0 29.9785887,36.2806591 21.3330497,51.6731907 C16.4046748,60.4353427 -3.20023348,84.6386599 0.450105209,112.692136 C5.67084132,153.220129 46.768476,187.304171 99.5104405,182.14901 C152.252405,176.99385 193.333333,140.761824 193.333333,91.0745052 Z" id="Shape" fill="url(#radialGradient-1)"></path>
                <path d="M134.298851,109.067342 C132.217346,108.928483 132.76907,104.166425 128.371996,104.681022 C125.2372,105.056759 124.886102,108.691605 124.6186,111.525969 C124.3093,114.703397 123.933124,117.390733 122.946708,116.94965 C122.110763,116.582082 122.353187,115.136311 122.010449,110.717318 C121.617555,105.653037 120.338558,102.867682 117.262278,102.385759 C113.483804,101.797649 112.020899,107.376526 111.368861,109.541098 C110.716823,111.705669 109.588297,112.65318 108.861024,112.65318 C108.133751,112.65318 107.189133,112.367293 106.879833,109.826984 C106.570533,107.286676 108.735632,102.892187 111.711599,99.8209458 C120.647858,90.6153902 133.446186,84.113507 133.446186,69.8763434 C133.446186,56.4396629 123.556949,49.3333333 114.46186,49.3333333 C109.817751,49.3504435 105.394866,51.274159 102.273772,54.6344918 C100.108673,56.7337179 99.1640543,59.0779898 98.3364681,59.0779898 C97.5088819,59.0779898 96.5893417,56.7337179 94.4326019,54.6344918 C91.3102712,51.2758302 86.8881807,49.3524601 82.2445141,49.3333333 C73.1410658,49.3333333 63.2518286,56.4396629 63.2518286,69.8763434 C63.2518286,84.113507 76.0835946,90.6153902 85.0282132,99.8209458 C88.0041797,102.892187 90.1024033,107.254003 89.8516196,109.826984 C89.584117,112.587834 88.4973877,112.465311 87.9958203,112.448975 C87.7032393,112.448975 86.3239289,111.942547 85.4879833,108.80596 C84.7105538,105.930756 83.7241379,103.292429 80.4723093,103.088224 C76.8526646,102.867682 75.8996865,107.760431 75.5903866,111.632156 C75.3145246,114.964779 75.2225705,121.221616 73.9184953,120.70702 C73.1661442,120.396629 72.8066876,113.224954 72.1964472,107.727758 C71.7199582,103.472129 71.1431557,94.380928 68.6102403,92.7636254 C65.5423197,90.7950904 62.8422153,93.0005031 61.9979101,96.4883223 C61.3709509,99.0939764 61.2789969,101.25038 60.476489,104.754535 C59.8829676,107.343853 59.2058516,109.010165 56.6144201,109.010165 L49.3333333,109.051006 L49.3333333,112.898226 L51.0052247,112.898226 C60.4096134,113.282131 63.0679206,112.342788 64.1880878,108.185177 C64.896831,105.16372 65.4381962,102.107094 65.8098224,99.0286309 C66.1609195,97.231628 67.2978056,96.3331266 67.7910136,101.348398 C68.0417973,103.839698 68.2842215,107.066135 68.6687565,110.251731 C69.8223615,119.751341 70.123302,126.31857 74.369906,126.653466 C79.0846395,127.045539 79.1097179,118.599626 79.3855799,115.217993 C79.5778474,113.094262 79.862069,107.000789 80.9655172,107.662413 C82.4952978,108.560914 81.9101358,116.198176 89.1661442,116.516736 C93.3458725,116.704605 94.8338558,113.625195 95.1097179,110.219058 C95.3605016,107.000789 92.2173459,102.230563 87.9373041,98.113793 C77.6384535,88.1976045 70.4493208,83.0924827 70.4493208,72.1552698 C70.4493208,60.9975156 78.415883,55.4676477 85.3793103,55.4676477 C86.9090909,55.4676477 91.5903866,55.2144336 97.2497388,64.1667752 C97.5077446,64.5044701 97.8989947,64.7208096 98.3281087,64.7630534 C98.758855,64.7258831 99.1520834,64.5084498 99.4064786,64.1667752 C105.065831,55.1817609 109.747126,55.4676477 111.285266,55.4676477 C118.240334,55.4676477 126.215256,60.9975156 126.215256,72.1552698 C126.215256,83.0924827 118.975967,87.928054 108.660397,97.8442426 C104.388715,101.92834 101.462905,106.992621 101.554859,110.219058 C101.646813,113.445495 103.343783,116.704605 107.498433,116.516736 C114.512017,116.198176 114.119122,110.586627 115.548589,107.531722 C116.334378,105.898083 117.329154,105.898083 117.579937,108.348541 C117.84744,110.913354 117.84744,111.615819 118.114943,114.23781 C118.46604,117.58677 119.678161,121.344139 122.77116,121.050084 C125.429467,120.79687 126.950888,119.195904 127.460815,114.376669 C127.602926,112.971739 127.711599,112.342788 127.895507,110.292572 C128.00418,109.140856 128.363636,108.250523 128.873563,108.422055 C129.38349,108.593587 129.885057,109.794312 130.244514,110.594795 C131.347962,112.988076 133.872518,112.865553 134.424242,112.873721 C136.990596,112.930899 137.885057,112.873721 137.885057,112.873721 L145.333333,112.873721 L145.333333,109.108183 C141.053292,109.108183 135.410658,109.059174 134.165099,108.969324" id="Shape" fill="#FFFFFF"></path>
            </g>
        </g>
    </g>
</svg>