<svg id="Layer_1" data-name="Layer 1" xmlns="http://www.w3.org/2000/svg" viewBox="0 0 22.2 19.75"><defs><style>.cls-1{fill:#d40c3e;}</style></defs><title>icon-error</title><g id="Layer_2" data-name="Layer 2"><path class="cls-1" d="M21.83,16.72l-9-15.64A2,2,0,0,0,10.08.4a1.93,1.93,0,0,0-.68.68h0l-9,15.64a2,2,0,0,0,1.69,3H20.13a2,2,0,0,0,2-2A1.88,1.88,0,0,0,21.83,16.72Zm-19.4.76,8.67-15,8.67,15Z"/><rect class="cls-1" x="9.97" y="6.55" width="2.17" height="5.72"/><path class="cls-1" d="M12,14.05a1.32,1.32,0,0,0-1.76,0,1,1,0,0,0-.15.2.72.72,0,0,0-.12.21,2.17,2.17,0,0,0-.07.24v.24a1.27,1.27,0,0,0,.09.47,1.56,1.56,0,0,0,.27.4,1.34,1.34,0,0,0,.4.27,1.17,1.17,0,0,0,.48.09,1.25,1.25,0,0,0,.88-.36,1.56,1.56,0,0,0,.27-.4,1.27,1.27,0,0,0,.09-.47V14.7a2.17,2.17,0,0,0-.07-.24.72.72,0,0,0-.12-.21A1.8,1.8,0,0,0,12,14.05Z"/></g></svg>