<?xml version="1.0" encoding="UTF-8"?>
<svg width="142px" height="44px" viewBox="0 0 142 44" version="1.1" xmlns="http://www.w3.org/2000/svg" xmlns:xlink="http://www.w3.org/1999/xlink">
    <!-- Generator: Sketch 47.1 (45422) - http://www.bohemiancoding.com/sketch -->
    <title>Artboard 2</title>
    <desc>Created with Sketch.</desc>
    <defs>
        <polygon id="path-1" points="0.591210526 21.7816423 0.591210526 43.3090141 140.826224 43.3090141 140.826224 0.254270423 0.591210526 0.254270423 0.591210526 21.7816423"></polygon>
    </defs>
    <g id="Page-1" stroke="none" stroke-width="1" fill="none" fill-rule="evenodd">
        <g id="Artboard-2">
            <g id="FR_RegLogoGuidelines_v1.2" transform="translate(70.500000, 22.500000) rotate(-360.000000) translate(-70.500000, -22.500000) ">
                <g id="Group-90" transform="translate(0.000000, 0.171042)">
                    <mask id="mask-2" fill="white">
                        <use xlink:href="#path-1"></use>
                    </mask>
                    <g id="Clip-53"></g>
                    <path d="M22.0733026,0.254270423 C10.2095132,0.254270423 0.591210526,9.89212958 0.591210526,21.7814254 C0.591210526,33.6707211 10.2095132,43.3092 22.0733026,43.3092 C33.9370921,43.3092 43.5553947,33.6707211 43.5553947,21.7814254 C43.5553947,9.89212958 33.9370921,0.254270423 22.0733026,0.254270423 M22.0733026,3.79286197 C31.9711316,3.79286197 40.0242105,11.8622141 40.0242105,21.7814254 C40.0242105,31.7000169 31.9711316,39.7699887 22.0733026,39.7699887 C12.1754737,39.7699887 4.12239474,31.7000169 4.12239474,21.7814254 C4.12239474,11.8622141 12.1754737,3.79286197 22.0733026,3.79286197" id="Fill-52" fill="#FFFFFF" mask="url(#mask-2)"></path>
                    <polygon id="Fill-54" fill="#FFFFFF" mask="url(#mask-2)" points="9.30773158 14.5623887 21.5097974 14.5623887 21.5097974 18.2745014 13.5352579 18.2745014 13.5352579 20.8729803 20.7472842 20.8729803 20.7472842 24.3880225 13.5352579 24.3880225 13.5352579 29.8471211 9.30773158 29.8471211"></polygon>
                    <path d="M29.3991803,21.8991099 C30.8159829,21.8991099 31.6656934,21.2000676 31.6656934,20.0864338 L31.6656934,20.0430535 C31.6656934,18.8203493 30.772075,18.2086873 29.3775355,18.2086873 L26.5884566,18.2086873 L26.5884566,21.8991099 L29.3991803,21.8991099 Z M22.3609303,14.5622648 L29.573575,14.5622648 C31.9056408,14.5622648 33.5178645,15.173307 34.5419697,16.1995606 C35.4349697,17.0950535 35.8926013,18.2520676 35.8926013,19.7592225 L35.8926013,19.8026028 C35.8926013,22.1612507 34.6508118,23.7111662 32.7547329,24.5192789 L36.3941408,29.8469972 L31.5345882,29.8469972 L28.4622724,25.2177014 L26.5884566,25.2177014 L26.5884566,29.8469972 L22.3609303,29.8469972 L22.3609303,14.5622648 Z" id="Fill-55" fill="#FFFFFF" mask="url(#mask-2)"></path>
                    <polygon id="Fill-56" fill="#FFFFFF" mask="url(#mask-2)" points="51.8572645 15.2253014 58.4749882 15.2253014 58.4749882 15.8716676 52.5554618 15.8716676 52.5554618 19.731893 57.8707908 19.731893 57.8707908 20.3782592 52.5554618 20.3782592 52.5554618 24.6419211 51.8572645 24.6419211"></polygon>
                    <path d="M59.8454711,20.7270366 L59.8454711,15.2251775 L60.5436684,15.2251775 L60.5436684,20.6594873 C60.5436684,22.879938 61.7384579,24.1577972 63.7248263,24.1577972 C65.6308,24.1577972 66.8528,23.0007831 66.8528,20.7270366 L66.8528,15.2251775 L67.5503789,15.2251775 L67.5503789,20.647093 C67.5503789,23.3509239 65.9802079,24.7899099 63.6976158,24.7899099 C61.4428526,24.7899099 59.8454711,23.3645577 59.8454711,20.7270366" id="Fill-57" fill="#FFFFFF" mask="url(#mask-2)"></path>
                    <polygon id="Fill-58" fill="#FFFFFF" mask="url(#mask-2)" points="69.5266053 15.2253014 70.1846053 15.2253014 76.6681316 23.4179775 76.6681316 15.2253014 77.3391184 15.2253014 77.3391184 24.6419211 76.8159342 24.6419211 70.1982105 16.2757239 70.1982105 24.6419211 69.5266053 24.6419211"></polygon>
                    <path d="M82.5890184,23.9960507 C85.2061763,23.9960507 86.8573605,22.2069239 86.8573605,19.9604451 L86.8573605,19.9331775 C86.8573605,17.7003324 85.2061763,15.8715437 82.5890184,15.8715437 L80.1586237,15.8715437 L80.1586237,23.9960507 L82.5890184,23.9960507 Z M79.4610447,15.2251775 L82.5890184,15.2251775 C85.5419789,15.2251775 87.58215,17.2572338 87.58215,19.9071493 L87.58215,19.9331775 C87.58215,22.583093 85.5419789,24.6411775 82.5890184,24.6411775 L79.4610447,24.6411775 L79.4610447,15.2251775 Z" id="Fill-59" fill="#FFFFFF" mask="url(#mask-2)"></path>
                    <path d="M93.1548658,20.1089296 C94.7262737,20.1089296 95.8938526,19.3150704 95.8938526,17.9560282 L95.8938526,17.93 C95.8938526,16.6651549 94.90005,15.8719155 93.1956816,15.8719155 L89.9866947,15.8719155 L89.9866947,20.1089296 L93.1548658,20.1089296 Z M89.2891158,15.2249296 L93.2358789,15.2249296 C94.3904711,15.2249296 95.3168658,15.5887042 95.8802474,16.1532676 C96.3230368,16.5982254 96.5914316,17.2297183 96.5914316,17.9027324 L96.5914316,17.93 C96.5914316,19.5034648 95.4238526,20.4045352 93.8400763,20.6195775 L96.9408395,24.6415493 L96.0540237,24.6415493 L93.0614842,20.7404225 L89.9866947,20.7404225 L89.9866947,24.6415493 L89.2891158,24.6415493 L89.2891158,15.2249296 Z" id="Fill-60" fill="#FFFFFF" mask="url(#mask-2)"></path>
                    <path d="M104.687924,21.3734028 L102.217332,15.9254592 L99.7349895,21.3734028 L104.687924,21.3734028 Z M101.895753,15.1576282 L102.566739,15.1576282 L106.942068,24.6417972 L106.1777,24.6417972 L104.982911,22.0048958 L99.4387658,22.0048958 L98.2439763,24.6417972 L97.5191868,24.6417972 L101.895753,15.1576282 Z" id="Fill-61" fill="#FFFFFF" mask="url(#mask-2)"></path>
                    <polygon id="Fill-62" fill="#FFFFFF" mask="url(#mask-2)" points="108.353553 24.6418592 109.052368 24.6418592 109.052368 15.2252394 108.353553 15.2252394"></polygon>
                    <path d="M110.663726,23.2696789 L111.120121,22.7453972 C112.153503,23.6997634 113.106489,24.1441014 114.489279,24.1441014 C115.899279,24.1441014 116.865253,23.350862 116.865253,22.2744113 L116.865253,22.2471437 C116.865253,21.2512563 116.342068,20.6730592 114.207279,20.2435944 C111.953134,19.7862423 111.039108,19.019031 111.039108,17.5930592 L111.039108,17.5657915 C111.039108,16.1670873 112.314911,15.0906366 114.060095,15.0906366 C115.429279,15.0906366 116.328463,15.4680451 117.28145,16.2340169 L116.839279,16.7861859 C115.952463,16.0189746 115.066266,15.723369 114.032884,15.723369 C112.650713,15.723369 111.737924,16.5172282 111.737924,17.498862 L111.737924,17.5261296 C111.737924,18.5213972 112.247503,19.126862 114.475674,19.5842141 C116.650042,20.0279324 117.564068,20.807538 117.564068,22.1795944 L117.564068,22.206862 C117.564068,23.727031 116.261055,24.7762141 114.4497,24.7762141 C112.945082,24.7762141 111.791108,24.2785803 110.663726,23.2696789" id="Fill-63" fill="#FFFFFF" mask="url(#mask-2)"></path>
                    <polygon id="Fill-64" fill="#FFFFFF" mask="url(#mask-2)" points="119.282908 24.6418592 119.981724 24.6418592 119.981724 15.2252394 119.282908 15.2252394"></polygon>
                    <polygon id="Fill-65" fill="#FFFFFF" mask="url(#mask-2)" points="122.196784 15.2253014 122.854784 15.2253014 129.338311 23.4179775 129.338311 15.2253014 130.009297 15.2253014 130.009297 24.6419211 129.486113 24.6419211 122.868389 16.2757239 122.868389 24.6419211 122.196784 24.6419211"></polygon>
                    <path d="M131.71583,19.960693 L131.71583,19.9334254 C131.71583,17.3913408 133.554396,15.0642986 136.360791,15.0642986 C137.891383,15.0642986 138.857357,15.5216507 139.797357,16.3018761 L139.340962,16.8261577 C138.602567,16.1804113 137.742962,15.6957915 136.320593,15.6957915 C134.038001,15.6957915 132.44062,17.6336507 132.44062,19.9067775 L132.44062,19.9334254 C132.44062,22.3689183 133.957607,24.1840732 136.467778,24.1840732 C137.662567,24.1840732 138.776343,23.6870592 139.461554,23.1076225 L139.461554,20.4044113 L136.320593,20.4044113 L136.320593,19.7586648 L140.131922,19.7586648 L140.131922,23.3908338 C139.287159,24.1444113 137.971778,24.8031718 136.441186,24.8031718 C133.475238,24.8031718 131.71583,22.6106085 131.71583,19.960693" id="Fill-66" fill="#FFFFFF" mask="url(#mask-2)"></path>
                    <path d="M56.3892395,32.1307831 C57.5172395,32.1307831 58.1647263,31.5271775 58.1647263,30.637262 L58.1647263,30.6075155 C58.1647263,29.6122479 57.4720947,29.0991211 56.3440947,29.0991211 L54.0423316,29.0991211 L54.0423316,32.1307831 L56.3892395,32.1307831 Z M51.7251079,27.0044732 L56.5395158,27.0044732 C57.8790158,27.0044732 58.9167263,27.3806423 59.6087395,28.074107 C60.1962395,28.6622197 60.5116342,29.4914028 60.5116342,30.4866704 L60.5116342,30.5170366 C60.5116342,32.221262 59.5938974,33.2915155 58.2550158,33.7885296 L60.8276474,37.5582761 L58.1195816,37.5582761 L55.8623447,34.1808113 L54.0423316,34.1808113 L54.0423316,37.5582761 L51.7251079,37.5582761 L51.7251079,27.0044732 Z" id="Fill-67" fill="#FFFFFF" mask="url(#mask-2)"></path>
                    <polygon id="Fill-68" fill="#FFFFFF" mask="url(#mask-2)" points="61.8452592 27.0043493 69.7888776 27.0043493 69.7888776 29.0698704 64.1464039 29.0698704 64.1464039 31.2109972 69.112325 31.2109972 69.112325 33.2765183 64.1464039 33.2765183 64.1464039 35.492631 69.864325 35.492631 69.864325 37.5575324 61.8452592 37.5575324"></polygon>
                    <path d="M70.7014197,32.3116169 L70.7014197,32.2812507 C70.7014197,29.2811944 73.0341039,26.8233915 76.2233013,26.8233915 C78.1199987,26.8233915 79.2628408,27.3352789 80.3611566,28.2710535 L78.9023013,30.0347718 C78.0890776,29.3555606 77.3667618,28.9638986 76.1484724,28.9638986 C74.463275,28.9638986 73.1243934,30.4561803 73.1243934,32.2508845 L73.1243934,32.2812507 C73.1243934,34.2110535 74.4484329,35.6283493 76.3135908,35.6283493 C77.1564987,35.6283493 77.9091171,35.4170254 78.4953803,34.9949972 L78.4953803,33.4866028 L76.1633145,33.4866028 L76.1633145,31.4824338 L80.7371566,31.4824338 L80.7371566,36.0652507 C79.6543013,36.9849127 78.164525,37.7391099 76.2387618,37.7391099 C72.9586566,37.7391099 70.7014197,35.4325183 70.7014197,32.3116169" id="Fill-69" fill="#FFFFFF" mask="url(#mask-2)"></path>
                    <path d="M82.0403553,33.0347042 L82.0403553,27.0042254 L84.3575789,27.0042254 L84.3575789,32.9745915 C84.3575789,34.6936901 85.2153289,35.5829859 86.6296579,35.5829859 C88.0433684,35.5829859 88.9017368,34.7240563 88.9017368,33.0495775 L88.9017368,27.0042254 L91.2183421,27.0042254 L91.2183421,32.9590986 C91.2183421,36.1556056 89.4280132,37.7241127 86.5993553,37.7241127 C83.7713158,37.7241127 82.0403553,36.1407324 82.0403553,33.0347042" id="Fill-70" fill="#FFFFFF" mask="url(#mask-2)"></path>
                    <polygon id="Fill-71" fill="#FFFFFF" mask="url(#mask-2)" points="92.8223408 27.0043493 95.1395645 27.0043493 95.1395645 35.4473915 100.390578 35.4473915 100.390578 37.5575324 92.8223408 37.5575324"></polygon>
                    <path d="M107.426663,33.1409239 L106.027176,29.7182197 L104.628308,33.1409239 L107.426663,33.1409239 Z M104.988847,26.9282479 L107.125492,26.9282479 L111.639347,37.5576563 L109.216992,37.5576563 L108.254111,35.1909521 L103.800242,35.1909521 L102.837361,37.5576563 L100.474992,37.5576563 L104.988847,26.9282479 Z" id="Fill-72" fill="#FFFFFF" mask="url(#mask-2)"></path>
                    <polygon id="Fill-73" fill="#FFFFFF" mask="url(#mask-2)" points="113.604999 29.1444845 110.400341 29.1444845 110.400341 27.0045972 119.12688 27.0045972 119.12688 29.1444845 115.922222 29.1444845 115.922222 37.5577803 113.604999 37.5577803"></polygon>
                    <path d="M127.999491,32.3116169 L127.999491,32.2812507 C127.999491,30.472293 126.674833,28.9638986 124.809675,28.9638986 C122.94328,28.9638986 121.650162,30.441307 121.650162,32.2508845 L121.650162,32.2812507 C121.650162,34.0902085 122.973583,35.5986028 124.838741,35.5986028 C126.705136,35.5986028 127.999491,34.1205746 127.999491,32.3116169 M119.227188,32.3116169 L119.227188,32.2812507 C119.227188,29.2811944 121.588938,26.8233915 124.838741,26.8233915 C128.08978,26.8233915 130.421846,29.2508282 130.421846,32.2508845 L130.421846,32.2812507 C130.421846,35.281307 128.059478,37.7391099 124.809675,37.7391099 C121.559872,37.7391099 119.227188,35.3116732 119.227188,32.3116169" id="Fill-74" fill="#FFFFFF" mask="url(#mask-2)"></path>
                    <path d="M136.387754,32.1307831 C137.516372,32.1307831 138.163859,31.5271775 138.163859,30.637262 L138.163859,30.6075155 C138.163859,29.6122479 137.471228,29.0991211 136.342609,29.0991211 L134.041464,29.0991211 L134.041464,32.1307831 L136.387754,32.1307831 Z M131.724241,27.0044732 L136.538649,27.0044732 C137.87753,27.0044732 138.915859,27.3806423 139.607872,28.074107 C140.194754,28.6622197 140.511386,29.4914028 140.511386,30.4866704 L140.511386,30.5170366 C140.511386,32.221262 139.593649,33.2915155 138.254149,33.7885296 L140.82678,37.5582761 L138.118714,37.5582761 L135.861478,34.1808113 L134.041464,34.1808113 L134.041464,37.5582761 L131.724241,37.5582761 L131.724241,27.0044732 Z" id="Fill-75" fill="#FFFFFF" mask="url(#mask-2)"></path>
                    <path d="M54.2668803,7.6159662 C54.9731171,7.6159662 55.4220908,7.24661408 55.4220908,6.6752338 L55.4220908,6.65912113 C55.4220908,6.05613521 54.9891961,5.72644507 54.2588408,5.72644507 L52.8222487,5.72644507 L52.8222487,7.6159662 L54.2668803,7.6159662 Z M51.8352487,4.82599437 L54.3386171,4.82599437 C55.0448539,4.82599437 55.5983408,5.03483944 55.9594987,5.38869859 C56.2569592,5.69421972 56.4251697,6.11252958 56.4251697,6.60334648 L56.4251697,6.61883944 C56.4251697,7.54407887 55.8716829,8.09872676 55.0930908,8.32368451 L56.6094592,10.4542761 L55.4381697,10.4542761 L54.0578539,8.49224789 L52.8222487,8.49224789 L52.8222487,10.4542761 L51.8352487,10.4542761 L51.8352487,4.82599437 Z" id="Fill-76" fill="#FFFFFF" mask="url(#mask-2)"></path>
                    <path d="M60.3645118,8.03415211 C60.3001961,7.40699718 59.9309987,6.91618028 59.2890776,6.91618028 C58.6953934,6.91618028 58.2779592,7.37477183 58.1901434,8.03415211 L60.3645118,8.03415211 Z M57.2272618,8.34772958 L57.2272618,8.3316169 C57.2272618,7.11758873 58.0856303,6.12046197 59.2971171,6.12046197 C60.645275,6.12046197 61.3273934,7.18203944 61.3273934,8.40412394 C61.3273934,8.49212394 61.3193539,8.58074366 61.3113145,8.67741972 L58.1981829,8.67741972 C58.3020776,9.36902535 58.7918671,9.75510986 59.4177092,9.75510986 C59.8908013,9.75510986 60.2278408,9.57787042 60.5648803,9.24818028 L61.1350645,9.75510986 C60.7337092,10.2372507 60.1796039,10.5508282 59.4016303,10.5508282 C58.1740645,10.5508282 57.2272618,9.6584338 57.2272618,8.34772958 L57.2272618,8.34772958 Z" id="Fill-77" fill="#FFFFFF" mask="url(#mask-2)"></path>
                    <path d="M65.5040237,8.12264789 L65.5040237,8.10653521 C65.5040237,7.41492958 64.9338395,6.94084507 64.2603789,6.94084507 C63.5863,6.94084507 63.0569316,7.40687324 63.0569316,8.10653521 L63.0569316,8.12264789 C63.0569316,8.81425352 63.5943395,9.28833803 64.2603789,9.28833803 C64.9338395,9.28833803 65.5040237,8.81425352 65.5040237,8.12264789 M62.2863789,11.2503662 L62.6475368,10.5184789 C63.1051684,10.799831 63.5782605,10.9690141 64.1558658,10.9690141 C65.0222737,10.9690141 65.4959842,10.5184789 65.4959842,9.6663662 L65.4959842,9.33667606 C65.1428658,9.79526761 64.7013132,10.1169014 64.0037342,10.1169014 C63.0086947,10.1169014 62.0779711,9.37695775 62.0779711,8.13070423 L62.0779711,8.11459155 C62.0779711,6.86028169 63.0167342,6.12033803 64.0037342,6.12033803 C64.7173921,6.12033803 65.1589447,6.45002817 65.4879447,6.84416901 L65.4879447,6.20895775 L66.4588658,6.20895775 L66.4588658,9.58580282 C66.4588658,10.3015775 66.2745763,10.8320563 65.9208395,11.1859155 C65.5361816,11.572 64.9424974,11.7566761 64.1799842,11.7566761 C63.4817868,11.7566761 62.8318263,11.5800563 62.2863789,11.2503662" id="Fill-78" fill="#FFFFFF" mask="url(#mask-2)"></path>
                    <path d="M67.7226711,6.20895775 L68.6935921,6.20895775 L68.6935921,10.4546479 L67.7226711,10.4546479 L67.7226711,6.20895775 Z M67.6824737,4.63301408 L68.72575,4.63301408 L68.72575,5.5576338 L67.6824737,5.5576338 L67.6824737,4.63301408 Z" id="Fill-79" fill="#FFFFFF" mask="url(#mask-2)"></path>
                    <path d="M69.5900553,9.89950423 L70.02295,9.24012394 C70.4886211,9.58592676 70.9784105,9.76254648 71.4113053,9.76254648 C71.8287395,9.76254648 72.0693053,9.58592676 72.0693053,9.30457465 L72.0693053,9.28846197 C72.0693053,8.95877183 71.6203316,8.8459831 71.1225026,8.69353239 C70.4966605,8.51629296 69.7984632,8.25910986 69.7984632,7.44727887 L69.7984632,7.4311662 C69.7984632,6.62739155 70.4645026,6.13657465 71.3067921,6.13657465 C71.8367789,6.13657465 72.4143842,6.3212507 72.8639763,6.61871549 L72.4787,7.31032113 C72.0693053,7.06119437 71.6357921,6.90812394 71.2826737,6.90812394 C70.9060553,6.90812394 70.6889895,7.08536338 70.6889895,7.3264338 L70.6889895,7.34254648 C70.6889895,7.65612394 71.1466211,7.78502535 71.6438316,7.94553239 C72.2616342,8.13888451 72.9598316,8.42023662 72.9598316,9.18372958 L72.9598316,9.19984225 C72.9598316,10.0922366 72.2696737,10.5347155 71.3871868,10.5347155 C70.7854632,10.5347155 70.1194237,10.3171944 69.5900553,9.89950423" id="Fill-80" fill="#FFFFFF" mask="url(#mask-2)"></path>
                    <path d="M74.1476329,9.28052958 L74.1476329,7.04520563 L73.610225,7.04520563 L73.610225,6.20920563 L74.1476329,6.20920563 L74.1476329,5.04289577 L75.1185539,5.04289577 L75.1185539,6.20920563 L76.2583039,6.20920563 L76.2583039,7.04520563 L75.1185539,7.04520563 L75.1185539,9.12745915 C75.1185539,9.50548732 75.3115013,9.65855775 75.6398829,9.65855775 C75.8569487,9.65855775 76.0492776,9.61021972 76.2416066,9.51354366 L76.2416066,10.3098817 C76.0010408,10.4462197 75.7363566,10.5267831 75.3671592,10.5267831 C74.6528829,10.5267831 74.1476329,10.2132056 74.1476329,9.28052958" id="Fill-81" fill="#FFFFFF" mask="url(#mask-2)"></path>
                    <path d="M80.0273329,8.03415211 C79.9630171,7.40699718 79.5938197,6.91618028 78.9518987,6.91618028 C78.3582145,6.91618028 77.9407803,7.37477183 77.8529645,8.03415211 L80.0273329,8.03415211 Z M76.8900829,8.34772958 L76.8900829,8.3316169 C76.8900829,7.11758873 77.7484513,6.12046197 78.9599382,6.12046197 C80.3080961,6.12046197 80.9902145,7.18203944 80.9902145,8.40412394 C80.9902145,8.49212394 80.982175,8.58074366 80.9741355,8.67741972 L77.8610039,8.67741972 C77.9648987,9.36902535 78.4546882,9.75510986 79.0805303,9.75510986 C79.5536224,9.75510986 79.8906618,9.57787042 80.2277013,9.24818028 L80.7978855,9.75510986 C80.3959118,10.2372507 79.842425,10.5508282 79.0644513,10.5508282 C77.8368855,10.5508282 76.8900829,9.6584338 76.8900829,8.34772958 L76.8900829,8.34772958 Z" id="Fill-82" fill="#FFFFFF" mask="url(#mask-2)"></path>
                    <path d="M81.9837079,6.20901972 L82.9546289,6.20901972 L82.9546289,7.16586479 C83.2193132,6.53065352 83.7091026,6.09623099 84.4549184,6.12845634 L84.4549184,7.15780845 L84.3992605,7.15780845 C83.5483132,7.15780845 82.9546289,7.71245634 82.9546289,8.83786479 L82.9546289,10.4547099 L81.9837079,10.4547099 L81.9837079,6.20901972 Z" id="Fill-83" fill="#FFFFFF" mask="url(#mask-2)"></path>
                    <path d="M88.1384816,8.03415211 C88.0741658,7.40699718 87.7049684,6.91618028 87.0630474,6.91618028 C86.4693632,6.91618028 86.0519289,7.37477183 85.9641132,8.03415211 L88.1384816,8.03415211 Z M85.0012316,8.34772958 L85.0012316,8.3316169 C85.0012316,7.11758873 85.8596,6.12046197 87.0710868,6.12046197 C88.4192447,6.12046197 89.1013632,7.18203944 89.1013632,8.40412394 C89.1013632,8.49212394 89.0933237,8.58074366 89.0852842,8.67741972 L85.9721526,8.67741972 C86.0760474,9.36902535 86.5658368,9.75510986 87.1916789,9.75510986 C87.6647711,9.75510986 88.0018105,9.57787042 88.33885,9.24818028 L88.9090342,9.75510986 C88.5070605,10.2372507 87.9535737,10.5508282 87.1756,10.5508282 C85.9480342,10.5508282 85.0012316,9.6584338 85.0012316,8.34772958 L85.0012316,8.34772958 Z" id="Fill-84" fill="#FFFFFF" mask="url(#mask-2)"></path>
                    <path d="M93.2982158,8.33979718 L93.2982158,8.32368451 C93.2982158,7.50379718 92.7199921,6.96464225 92.07065,6.96464225 C91.4046105,6.96464225 90.8511237,7.47962817 90.8511237,8.32368451 L90.8511237,8.33979718 C90.8511237,9.15968451 91.41265,9.69821972 92.07065,9.69821972 C92.7199921,9.69821972 93.2982158,9.15162817 93.2982158,8.33979718 M89.8721632,8.33979718 L89.8721632,8.32368451 C89.8721632,6.91630423 90.8270053,6.12058592 91.8381237,6.12058592 C92.5357026,6.12058592 92.9772553,6.46638873 93.2821368,6.8679662 L93.2821368,4.58492394 L94.2530579,4.58492394 L94.2530579,10.4542761 L93.2821368,10.4542761 L93.2821368,9.74655775 C92.9692158,10.1890366 92.5276632,10.5428958 91.8381237,10.5428958 C90.8424658,10.5428958 89.8721632,9.74655775 89.8721632,8.33979718" id="Fill-85" fill="#FFFFFF" mask="url(#mask-2)"></path>
                    <polygon id="Fill-86" fill="#FFFFFF" mask="url(#mask-2)" points="97.526175 6.20901972 98.5212145 6.20901972 99.3715434 9.11983662 100.310307 6.19290704 101.145175 6.19290704 102.083938 9.11983662 102.950346 6.20901972 103.929307 6.20901972 102.540951 10.4869352 101.666504 10.4869352 100.719701 7.58417465 99.7648592 10.4869352 98.8984513 10.4869352"></polygon>
                    <path d="M104.764237,6.20895775 L105.735158,6.20895775 L105.735158,10.4546479 L104.764237,10.4546479 L104.764237,6.20895775 Z M104.723421,4.63301408 L105.766697,4.63301408 L105.766697,5.5576338 L104.723421,5.5576338 L104.723421,4.63301408 Z" id="Fill-87" fill="#FFFFFF" mask="url(#mask-2)"></path>
                    <path d="M107.153754,9.28052958 L107.153754,7.04520563 L106.616346,7.04520563 L106.616346,6.20920563 L107.153754,6.20920563 L107.153754,5.04289577 L108.124675,5.04289577 L108.124675,6.20920563 L109.263807,6.20920563 L109.263807,7.04520563 L108.124675,7.04520563 L108.124675,9.12745915 C108.124675,9.50548732 108.317622,9.65855775 108.646004,9.65855775 C108.86307,9.65855775 109.055399,9.61021972 109.247728,9.51354366 L109.247728,10.3098817 C109.007162,10.4462197 108.742478,10.5267831 108.37328,10.5267831 C107.659622,10.5267831 107.153754,10.2132056 107.153754,9.28052958" id="Fill-88" fill="#FFFFFF" mask="url(#mask-2)"></path>
                    <path d="M110.244437,4.58492394 L111.215358,4.58492394 L111.215358,6.86052958 C111.488082,6.46638873 111.881397,6.12058592 112.538779,6.12058592 C113.494239,6.12058592 114.047726,6.76385352 114.047726,7.74486761 L114.047726,10.4542761 L113.076805,10.4542761 L113.076805,8.04233239 C113.076805,7.38295211 112.747805,7.00492394 112.1702,7.00492394 C111.608674,7.00492394 111.215358,7.39906479 111.215358,8.05844507 L111.215358,10.4542761 L110.244437,10.4542761 L110.244437,4.58492394 Z" id="Fill-89" fill="#FFFFFF" mask="url(#mask-2)"></path>
                </g>
            </g>
        </g>
    </g>
</svg>