<svg id="Layer_1" data-name="Layer 1" xmlns="http://www.w3.org/2000/svg" viewBox="0 0 194.83 56.69"><defs><style>.cls-1{fill:#fff;}</style></defs><title>BHF_Logo_Lockup Horizontal_BHF_White_RGB</title><path class="cls-1" d="M52.69,39.92c-1.12-.08-.82-2.7-3.19-2.41-1.68.2-1.86,2.2-2,3.76-.17,1.74-.37,3.22-.88,3s-.32-1-.51-3.43c-.21-2.78-.89-4.31-2.55-4.58-2-.32-2.81,2.74-3.16,3.93s-1,1.72-1.35,1.72-.9-.16-1.06-1.56,1-3.81,2.59-5.5c4.8-5.06,11.7-8.63,11.7-16.45C52.27,11,47,7.09,42.07,7.09A8.86,8.86,0,0,0,35.53,10c-1.17,1.15-1.67,2.44-2.12,2.44s-.94-1.29-2.1-2.44a8.88,8.88,0,0,0-6.54-2.91c-4.89,0-10.2,3.9-10.2,11.29,0,7.82,6.89,11.39,11.7,16.45,1.59,1.69,2.72,4.09,2.59,5.5s-.73,1.45-1,1.44-.91-.27-1.37-2-.94-3-2.69-3.12c-1.95-.12-2.46,2.56-2.63,4.69-.14,1.83-.19,5.27-.88,5-.4-.17-.6-4.11-.93-7.13-.25-2.34-.56-7.34-1.92-8.23-1.65-1.08-3.1.13-3.55,2.05-.34,1.43-.39,2.62-.82,4.54C12.75,39,12.39,39.9,11,39.9l-3.91,0V42H8c5.06.21,6.48-.31,7.09-2.59a49.69,49.69,0,0,0,.87-5c.18-1,.79-1.49,1.06,1.27.13,1.37.26,3.12.47,4.89.62,5.22.78,8.83,3.06,9,2.53.22,2.55-4.43,2.72-6.27.1-1.17.25-4.51.84-4.15.82.49.51,4.69,4.4,4.86,2.23.11,3.05-1.58,3.2-3.46s-1.55-4.39-3.85-6.65c-5.54-5.45-9.39-8.26-9.39-14.26s4.27-9.18,8-9.18c.82,0,3.34-.14,6.38,4.78a.67.67,0,0,0,1.16,0c3-4.92,5.55-4.78,6.38-4.78,3.73,0,8,3,8,9.18S44.5,28.33,39,33.78c-2.29,2.26-3.86,5-3.82,6.8s1,3.57,3.2,3.46c3.76-.17,3.55-3.25,4.32-4.92.42-.89,1-.89,1.09.45s.14,1.81.29,3.24c.18,1.84.84,3.91,2.5,3.75,1.43-.14,2.25-1,2.52-3.67.07-.77.13-1.12.23-2.24.06-.64.25-1.12.53-1s.54.75.73,1.19a2.29,2.29,0,0,0,2.27,1.26c1.38,0,1.86,0,1.86,0h4V40c-2.29,0-5.32,0-6-.07"/><path class="cls-1" d="M72.85,12.49c2.43,0,3.82,1.39,3.82,3a2.27,2.27,0,0,1-1.92,2.45c-.39.11-.43.55,0,.62a2.69,2.69,0,0,1,2.37,2.9c0,1.88-1.74,3.14-3.81,3.14H67.75V12.49ZM70,22.67h3c1.13,0,1.78-.5,1.78-1.46,0-1.18-1.11-1.37-1.94-1.76a1.16,1.16,0,0,1,0-2.18c.69-.29,1.51-.48,1.53-1.54,0-.83-.6-1.36-1.65-1.36H70Z"/><path class="cls-1" d="M80.46,16.33v.92A2.94,2.94,0,0,1,83,16.17v2.06c-1.57,0-2.35.72-2.35,2v4.37H78.38V16.33Z"/><path class="cls-1" d="M84,14.1a1.34,1.34,0,0,1,1.33-1.34,1.34,1.34,0,1,1,0,2.68A1.34,1.34,0,0,1,84,14.1Zm2.41,2.23v8.23H84.14V16.33Z"/><path class="cls-1" d="M94,23.15a2.64,2.64,0,0,1-2.5,1.58A2.29,2.29,0,0,1,89,22.23V18.18H87.64V16.33H89V13.58h2.22v2.75H93.1v1.85H91.24v4.06c0,.43.19.64.48.64s.48-.18.74-.65l.22-.42,1.53.86Z"/><path class="cls-1" d="M94.9,14.1a1.34,1.34,0,0,1,1.33-1.34,1.34,1.34,0,1,1,0,2.68A1.34,1.34,0,0,1,94.9,14.1Zm2.41,2.23v8.23H95.08V16.33Z"/><path class="cls-1" d="M101.05,22.21c0,.43.5.65,1.25.65s1.17-.24,1.17-.69c0-1.52-4.27-.51-4.27-3.46,0-1.49,1.27-2.5,3.39-2.5a4,4,0,0,1,3,1.16l-1.11,1.36a2.66,2.66,0,0,0-1.85-.76c-.84,0-1.17.29-1.17.66,0,1.28,4.29.56,4.29,3.44,0,1.61-1.34,2.62-3.48,2.62-2,0-3.4-.85-3.4-2.26a2.32,2.32,0,0,1,.38-1.23l1.94.65A.85.85,0,0,0,101.05,22.21Z"/><path class="cls-1" d="M114.82,19.26c0,.68-.17,1.56-.17,2.67a10,10,0,0,0,.34,2.63h-2.23a9.6,9.6,0,0,1-.34-2.56c0-1,.15-1.76.15-2.35A1.39,1.39,0,0,0,111,18.06a1.77,1.77,0,0,0-1.92,2v4.55h-2.23V12.23h2.2v5a3.17,3.17,0,0,1,2.52-1.07A3,3,0,0,1,114.82,19.26Z"/><path class="cls-1" d="M130.76,12.49V24.56h-2.28V19.19H127c-2.64,0-3.94,1.29-3.94,3.45v1.92h-2.29V12.49h2.29v6.27a5.94,5.94,0,0,1,4.28-1.49h1.13V12.49Z"/><path class="cls-1" d="M139.78,23.48a4.68,4.68,0,0,1-3.56,1.25,4,4,0,0,1-4.32-4.25,4.2,4.2,0,0,1,4.44-4.31c2.22,0,3.24,1.31,3.24,2.66,0,2.25-2.76,3-5.32,3,.29.67.89,1,2,1a3.77,3.77,0,0,0,2.43-.83ZM134,20.27c2.07,0,3.39-.33,3.39-1.34,0-.53-.36-.92-1.2-.92A2.16,2.16,0,0,0,134,20.27Z"/><path class="cls-1" d="M146.64,24.56c-.12-.38-.22-.74-.31-1.12a3.31,3.31,0,0,1-2.81,1.29c-1.84,0-2.92-1.05-2.92-2.56s1-2.41,3.67-2.47c.79,0,1.6-.05,1.6-.7s-.47-.92-1.46-.92a2.09,2.09,0,0,0-1.85.85l-1.72-1.06a4,4,0,0,1,3.55-1.7c2.23,0,3.71,1.08,3.72,3.45a15.43,15.43,0,0,0,.59,4.94ZM146.07,22c0-.32,0-.69-.08-1.06a3.83,3.83,0,0,1-1.49.19c-.66,0-1.68.1-1.68,1.09a1,1,0,0,0,1.09,1A2.81,2.81,0,0,0,146.07,22Z"/><path class="cls-1" d="M151.92,16.33v.92a2.94,2.94,0,0,1,2.5-1.08v2.06c-1.57,0-2.34.72-2.34,2v4.37h-2.23V16.33Z"/><path class="cls-1" d="M161.54,23.15a2.64,2.64,0,0,1-2.5,1.58,2.3,2.3,0,0,1-2.46-2.5V18.18h-1.37V16.33h1.37V13.58h2.23v2.75h1.85v1.85h-1.85v4.06c0,.43.19.64.48.64s.48-.18.74-.65l.22-.42,1.53.86Z"/><path class="cls-1" d="M70,31.86v3.72A4.78,4.78,0,0,1,73,34.76h1.63v1.9h-2c-1.79,0-2.57.79-2.57,2.09V42H67.75V30H75.3v1.9Z"/><path class="cls-1" d="M75.54,37.94A4.42,4.42,0,1,1,80,42.2,4.17,4.17,0,0,1,75.54,37.94Zm6.58,0c0-1.51-.8-2.42-2.16-2.42A2.12,2.12,0,0,0,77.78,38a2.18,2.18,0,1,0,4.34,0Z"/><path class="cls-1" d="M85.45,39.09c0-.68.17-1.57.17-2.65a9.91,9.91,0,0,0-.34-2.64h2.23a9.51,9.51,0,0,1,.34,2.57c0,1-.16,1.75-.16,2.33,0,1,.47,1.59,1.48,1.59a1.77,1.77,0,0,0,1.94-1.93V33.8h2.23V42H91.26V41.1a3.61,3.61,0,0,1-2.73,1.08A2.93,2.93,0,0,1,85.45,39.09Z"/><path class="cls-1" d="M102.92,36.73c0,.68-.17,1.56-.17,2.67a10,10,0,0,0,.34,2.63h-2.23a9.6,9.6,0,0,1-.34-2.56c0-1,.15-1.77.15-2.35a1.39,1.39,0,0,0-1.56-1.59,1.77,1.77,0,0,0-1.92,1.95V42H95V33.8H97v.9a3.75,3.75,0,0,1,2.64-1.06A3,3,0,0,1,102.92,36.73Z"/><path class="cls-1" d="M111,42a5.64,5.64,0,0,1-.22-1.1A3.3,3.3,0,0,1,108,42.21a4,4,0,0,1-4-4.28,4.18,4.18,0,0,1,4.17-4.29,3,3,0,0,1,2.09.76V29.7h2.26v6.91a22.51,22.51,0,0,0,.6,5.42Zm-.64-4.12c0-1.53-.82-2.38-2.09-2.38s-2.07.85-2.07,2.38.8,2.38,2.07,2.38S110.39,39.45,110.39,37.91Z"/><path class="cls-1" d="M120.18,42c-.12-.38-.22-.74-.3-1.12a3.33,3.33,0,0,1-2.82,1.29c-1.83,0-2.91-1.05-2.91-2.56s1-2.41,3.67-2.47c.79,0,1.59-.05,1.59-.7s-.46-.93-1.45-.93a2.12,2.12,0,0,0-1.86.86l-1.71-1.06a4,4,0,0,1,3.55-1.7c2.23,0,3.7,1.08,3.72,3.45a15.43,15.43,0,0,0,.58,4.94Zm-.56-2.61c0-.33-.05-.69-.09-1.06a3.62,3.62,0,0,1-1.49.18c-.65,0-1.68.11-1.68,1.1a1,1,0,0,0,1.1,1A2.81,2.81,0,0,0,119.62,39.42Z"/><path class="cls-1" d="M129.32,40.62a2.64,2.64,0,0,1-2.5,1.58,2.29,2.29,0,0,1-2.45-2.51v-4H123V33.8h1.37V31.05h2.23V33.8h1.85v1.85H126.6v4.06c0,.43.19.63.48.63s.48-.17.73-.65l.23-.41,1.52.86Z"/><path class="cls-1" d="M130.25,31.57a1.34,1.34,0,0,1,1.34-1.34,1.34,1.34,0,1,1,0,2.67A1.34,1.34,0,0,1,130.25,31.57Zm2.42,2.23V42h-2.23V33.8Z"/><path class="cls-1" d="M134.18,37.94a4.41,4.41,0,1,1,4.42,4.26A4.17,4.17,0,0,1,134.18,37.94Zm6.58,0c0-1.51-.81-2.42-2.16-2.42A2.12,2.12,0,0,0,136.42,38a2.18,2.18,0,1,0,4.34,0Z"/><path class="cls-1" d="M152.45,36.73c0,.68-.17,1.56-.17,2.67a10,10,0,0,0,.34,2.63h-2.23a10,10,0,0,1-.34-2.56c0-1,.16-1.77.16-2.35a1.39,1.39,0,0,0-1.56-1.59,1.77,1.77,0,0,0-1.92,1.95V42H144.5V33.8h2.07v.9a3.75,3.75,0,0,1,2.64-1.06A3,3,0,0,1,152.45,36.73Z"/></svg>