<svg xmlns="http://www.w3.org/2000/svg" width="63" height="48" viewBox="0 0 63 48">
    <g fill="none" fill-rule="evenodd">
        <path fill="#FFF" d="M-58-1063h320v2472H-58z"/>
        <path d="M-8-8h79v65H-8z"/>
        <path fill="#231F20" fill-rule="nonzero" d="M11.187 47.748v-3.021a1.726 1.726 0 0 0-.552-1.385 2 2 0 0 0-1.479-.53c-.727-.043-1.422.285-1.814.857-.358-.555-1.013-.884-1.707-.856a1.747 1.747 0 0 0-1.512.715v-.594H3v4.814h1.134V45.1a1.08 1.08 0 0 1 .309-.917c.244-.247.594-.38.955-.362.745 0 1.123.453 1.123 1.27v2.678h1.134V45.1a1.084 1.084 0 0 1 .311-.915 1.26 1.26 0 0 1 .953-.364c.766 0 1.134.453 1.134 1.27v2.678l1.134-.02zm16.778-4.814h-1.847v-1.46h-1.134v1.46h-1.026v.957h1.048v2.215c0 1.118.464 1.783 1.792 1.783.497.002.983-.127 1.404-.372l-.324-.897a2.185 2.185 0 0 1-.993.272c-.54 0-.745-.322-.745-.806v-2.195h1.836l-.011-.957zm9.58-.121c-.558-.015-1.08.255-1.361.705v-.584H35.07v4.814h1.124v-2.7c0-.795.367-1.238 1.08-1.238.24-.003.478.038.702.12l.345-1.006a2.56 2.56 0 0 0-.799-.131l.022.02zm-14.484.504a4.08 4.08 0 0 0-2.106-.504c-1.306 0-2.16.584-2.16 1.541 0 .786.627 1.269 1.782 1.42l.54.07c.616.081.908.232.908.504 0 .373-.41.584-1.178.584a2.887 2.887 0 0 1-1.717-.503l-.54.816a3.92 3.92 0 0 0 2.236.624c1.49 0 2.354-.655 2.354-1.571 0-.917-.68-1.29-1.803-1.44l-.54-.07c-.486-.061-.875-.152-.875-.474 0-.323.367-.564.983-.564a3.512 3.512 0 0 1 1.62.413l.496-.846zm30.085-.504c-.558-.015-1.08.255-1.361.705v-.584h-1.113v4.814h1.124v-2.7c0-.795.367-1.238 1.08-1.238.24-.003.478.038.702.12l.345-1.006a2.56 2.56 0 0 0-.8-.131l.023.02zM38.673 45.33a2.349 2.349 0 0 0 .78 1.826c.525.48 1.241.73 1.974.692a2.829 2.829 0 0 0 1.858-.574l-.54-.846a2.375 2.375 0 0 1-1.35.433c-.861-.065-1.524-.736-1.524-1.541 0-.806.663-1.476 1.524-1.541.488.005.962.157 1.35.433l.54-.846a2.829 2.829 0 0 0-1.858-.574 2.717 2.717 0 0 0-1.973.691 2.349 2.349 0 0 0-.78 1.827v.02zm10.52 0v-2.397h-1.124v.584a2.019 2.019 0 0 0-1.62-.705c-1.49 0-2.7 1.127-2.7 2.518 0 1.39 1.21 2.518 2.7 2.518.63.022 1.233-.24 1.62-.705v.584h1.124v-2.397zm-4.18 0c.05-.79.768-1.398 1.616-1.369.849.03 1.516.687 1.502 1.478-.013.792-.703 1.428-1.552 1.432a1.606 1.606 0 0 1-1.145-.451 1.39 1.39 0 0 1-.421-1.09zm-13.554-2.518c-1.492.02-2.683 1.163-2.663 2.553.021 1.39 1.247 2.502 2.738 2.483a3.289 3.289 0 0 0 2.144-.655l-.54-.775a2.569 2.569 0 0 1-1.501.503c-.772.062-1.457-.46-1.545-1.178h3.835v-.403c0-1.51-1.005-2.518-2.452-2.518l-.016-.01zm0 .937c.34-.007.668.112.913.331.245.22.386.52.393.837h-2.7c.041-.672.65-1.191 1.372-1.168h.022zm28.14 1.591V41h-1.08v2.518a2.019 2.019 0 0 0-1.62-.705c-1.492 0-2.7 1.127-2.7 2.518 0 1.39 1.208 2.518 2.7 2.518.63.022 1.233-.24 1.62-.705v.584h1.08v-2.387zm1.874 1.707a.546.546 0 0 1 .373.136.44.44 0 0 1 0 .675.546.546 0 0 1-.168.1.543.543 0 0 1-.691-.252.444.444 0 0 1 .113-.523.546.546 0 0 1 .389-.136h-.016zm0 .851a.407.407 0 0 0 .28-.11.354.354 0 0 0-.124-.585.413.413 0 0 0-.313 0 .354.354 0 0 0 0 .665.425.425 0 0 0 .173.03h-.016zm.032-.599c.05-.002.1.012.14.04a.122.122 0 0 1 .049.106.117.117 0 0 1-.038.09.196.196 0 0 1-.113.046l.156.166h-.124l-.146-.166h-.048v.166h-.103v-.443l.227-.005zm-.119.086v.12h.119a.121.121 0 0 0 .065 0 .047.047 0 0 0 0-.045.047.047 0 0 0 0-.045.121.121 0 0 0-.065 0l-.119-.03zm-5.94-2.045c.05-.79.768-1.398 1.616-1.369.849.03 1.516.687 1.502 1.478-.013.792-.703 1.428-1.552 1.432a1.606 1.606 0 0 1-1.144-.451 1.39 1.39 0 0 1-.422-1.09zm-37.925 0v-2.407h-1.123v.584a2.019 2.019 0 0 0-1.62-.705c-1.492 0-2.7 1.127-2.7 2.518 0 1.39 1.208 2.518 2.7 2.518.63.022 1.233-.24 1.62-.705v.584h1.123v-2.387zm-4.18 0c.05-.79.768-1.398 1.617-1.369.848.03 1.515.687 1.502 1.478-.014.792-.704 1.428-1.553 1.432a1.607 1.607 0 0 1-1.151-.447 1.39 1.39 0 0 1-.426-1.094h.011z"/>
        <g fill-rule="nonzero">
            <path fill="#FF5F00" d="M22.965 4.194h16.962v30.244H22.965z"/>
            <path fill="#EB001B" d="M24.042 19.318a19.146 19.146 0 0 1 7.404-15.124C23.498-2.003 12.085-1.101 5.227 6.267a19.122 19.122 0 0 0 0 26.097c6.858 7.368 18.271 8.27 26.22 2.074a19.146 19.146 0 0 1-7.405-15.12z"/>
            <path fill="#F79E1B" d="M62.812 19.318c0 7.364-4.238 14.081-10.914 17.3a19.51 19.51 0 0 1-20.452-2.18 19.178 19.178 0 0 0 7.407-15.122c0-5.901-2.73-11.476-7.407-15.122a19.51 19.51 0 0 1 20.452-2.18c6.676 3.218 10.913 9.935 10.914 17.299v.005zM60.96 31.232v-.62h.252v-.128h-.64v.128h.274v.62h.113zm1.243 0v-.748h-.194l-.226.534-.226-.534h-.172v.748h.14v-.56l.21.485h.145l.21-.486v.566l.113-.005z"/>
        </g>
    </g>
</svg>
