<svg xmlns="http://www.w3.org/2000/svg" width="136" height="33" viewBox="0 0 136 33">
    <g fill="none" fill-rule="evenodd">
        <path fill="#FFF" d="M-369-1726h1440V782H-369z"/>
        <g fill-rule="nonzero">
            <path fill="#253B80" d="M50.493 7h-7.45c-.51 0-.943.376-1.022.887l-3.013 19.386a.626.626 0 0 0 .614.727h3.556c.51 0 .944-.376 1.023-.888l.813-5.228a1.039 1.039 0 0 1 1.021-.888h2.359c4.907 0 7.739-2.41 8.478-7.185.333-2.09.014-3.731-.95-4.88C54.864 7.667 52.986 7 50.492 7zm.859 7.08c-.407 2.713-2.45 2.713-4.424 2.713h-1.125l.79-5.066a.623.623 0 0 1 .612-.532h.516c1.345 0 2.614 0 3.27.778.39.465.51 1.154.361 2.107zM73.363 14.348h-3.671a.64.64 0 0 0-.631.543l-.163 1.034-.256-.375c-.795-1.162-2.567-1.55-4.336-1.55-4.057 0-7.521 3.095-8.196 7.437-.351 2.166.148 4.237 1.367 5.682C58.596 28.447 60.197 29 62.101 29c3.269 0 5.081-2.117 5.081-2.117l-.164 1.027a.642.642 0 0 0 .63.746h3.307c.526 0 .97-.384 1.053-.907l1.984-12.658a.64.64 0 0 0-.63-.743zm-5.117 7.198c-.354 2.113-2.019 3.53-4.142 3.53-1.066 0-1.918-.343-2.465-.996-.542-.648-.749-1.571-.576-2.599.33-2.094 2.023-3.56 4.114-3.56 1.042 0 1.89.35 2.448 1.008.56.665.781 1.594.62 2.617zM91.387 14h-3.534c-.338 0-.654.173-.846.463l-4.874 7.428-2.067-7.138a1.029 1.029 0 0 0-.979-.753h-3.473c-.422 0-.715.427-.581.838l3.893 11.818L75.266 32c-.288.421.002 1 .5 1h3.53c.334 0 .648-.169.838-.453L91.89 14.994c.281-.42-.008-.994-.503-.994z"/>
            <path fill="#179BD7" d="M104.493 7h-7.45a1.04 1.04 0 0 0-1.022.887l-3.013 19.386a.626.626 0 0 0 .612.727h3.823a.728.728 0 0 0 .715-.621l.855-5.495a1.039 1.039 0 0 1 1.022-.888h2.357c4.908 0 7.74-2.41 8.48-7.185.334-2.09.013-3.731-.951-4.88C108.863 7.667 106.986 7 104.493 7zm.86 7.08c-.407 2.713-2.45 2.713-4.425 2.713h-1.123l.79-5.066a.621.621 0 0 1 .612-.532h.515c1.344 0 2.614 0 3.27.778.391.465.51 1.154.36 2.107zM127.359 14.348h-3.669a.637.637 0 0 0-.63.543l-.163 1.034-.257-.375c-.795-1.162-2.566-1.55-4.335-1.55-4.057 0-7.52 3.095-8.195 7.437-.35 2.166.146 4.237 1.366 5.682 1.12 1.328 2.72 1.881 4.624 1.881 3.269 0 5.081-2.117 5.081-2.117l-.163 1.027a.642.642 0 0 0 .632.746h3.306c.523 0 .97-.384 1.051-.907l1.985-12.658a.643.643 0 0 0-.633-.743zm-5.117 7.198c-.352 2.113-2.02 3.53-4.142 3.53-1.064 0-1.918-.343-2.465-.996-.543-.648-.747-1.571-.576-2.599.332-2.094 2.023-3.56 4.113-3.56 1.043 0 1.89.35 2.449 1.008.561.665.783 1.594.62 2.617zM131.169 7.533l-3.16 19.74a.633.633 0 0 0 .632.727h3.177c.528 0 .976-.376 1.057-.888l3.117-19.384a.634.634 0 0 0-.633-.728h-3.558a.64.64 0 0 0-.632.533z"/>
            <path fill="#253B80" d="M7.868 32l.579-3.66-1.29-.03H1L5.28 1.294A.35.35 0 0 1 5.627 1h10.381c3.447 0 5.826.714 7.067 2.124.583.66.953 1.352 1.133 2.112.188.798.191 1.751.008 2.914l-.014.085v.745l.582.328c.49.26.88.556 1.18.895.497.565.82 1.284.956 2.136.14.876.094 1.918-.137 3.099-.265 1.357-.695 2.54-1.275 3.507a7.226 7.226 0 0 1-2.02 2.204c-.77.545-1.685.958-2.72 1.223-1.003.26-2.147.39-3.4.39h-.809a2.433 2.433 0 0 0-2.403 2.042l-.06.33-1.023 6.453-.047.237c-.012.075-.033.112-.064.137a.172.172 0 0 1-.106.039H7.868z"/>
            <path fill="#179BD7" d="M25.261 8c-.03.199-.065.402-.104.61-1.34 7.054-5.923 9.491-11.778 9.491H10.4c-.716 0-1.32.533-1.431 1.257l-1.526 9.925-.433 2.813c-.072.475.285.904.753.904h5.287c.626 0 1.158-.466 1.256-1.1l.052-.275.996-6.477.064-.355a1.282 1.282 0 0 1 1.256-1.102h.79c5.123 0 9.133-2.133 10.305-8.303.49-2.578.236-4.73-1.06-6.244A5.073 5.073 0 0 0 25.262 8z"/>
            <path fill="#222D65" d="M23.624 7.476a10.306 10.306 0 0 0-1.28-.286c-.79-.129-1.654-.19-2.58-.19h-7.82c-.192 0-.375.044-.54.123-.36.175-.628.52-.693.941L9.048 18.69 9 19c.11-.7.702-1.214 1.405-1.214h2.927c5.749 0 10.25-2.355 11.566-9.166.04-.202.072-.398.102-.59a6.981 6.981 0 0 0-1.082-.46 9.561 9.561 0 0 0-.294-.094z"/>
            <path fill="#253B80" d="M10.367 8.322a1.263 1.263 0 0 1 1.25-1.071h7.928c.939 0 1.816.061 2.616.19a10.5 10.5 0 0 1 1.597.382c.393.131.759.286 1.096.464.397-2.537-.003-4.264-1.371-5.828C21.974.737 19.25 0 15.767 0H5.653c-.712 0-1.32.519-1.43 1.225L.012 27.993A.87.87 0 0 0 .868 29h6.245l1.568-9.971 1.686-10.707z"/>
        </g>
    </g>
</svg>
