<?xml version="1.0" encoding="utf-8"?>
<!-- Generator: Adobe Illustrator 22.1.0, SVG Export Plug-In . SVG Version: 6.00 Build 0)  -->
<svg version="1.1" id="Layer_1" xmlns="http://www.w3.org/2000/svg" xmlns:xlink="http://www.w3.org/1999/xlink" x="0px" y="0px"
	 viewBox="0 0 132 136" style="enable-background:new 0 0 132 136;" xml:space="preserve">
<style type="text/css">
	.st0{fill:none;}
	.st1{fill:#FF0030;}
</style>
<g>
	<path class="st0" d="M102.9,89c-1.8-1.8-4.6-1.6-6-0.2l-6.7,6.5c-3.8,3.6-8.6,5.4-13.7,5.2c-5.1,0-9.9-2.1-13.4-5.9L39.3,70.3
		c-3.6-3.8-5.4-8.6-5.2-13.7c0-5.1,2.1-9.9,5.9-13.4l6.7-6.5c0.9-0.9,1.3-1.9,1.3-3c0-1.3-0.4-2.3-1-3L26.3,9.2c-1-1-2.2-1.3-3-1.3
		c-0.6,0-2,0-3.1,1.4C-0.5,34.2,4.9,62.6,36.8,96.1c20.1,21.1,38.7,31.7,56.1,31.7c10.3,0,20.2-3.7,29.7-10.9
		c1.2-0.9,1.7-2.2,1.7-3.1c0-0.8,0-2-0.8-3.2L102.9,89z"/>
	<path class="st1" d="M128.2,105.6l-20.6-21.5c-1.6-2.2-4.4-3.5-7.7-3.8c-3.2,0-6.1,1.1-8.1,3.1l-6.7,6.5c-2.5,2.2-5.4,3.4-8.5,3.4
		c-3.2,0-6.3-1.4-8.4-3.7L44.9,64.9c-2.2-2.5-3.4-5.4-3.4-8.5c0-3.2,1.4-6.3,3.7-8.4l6.7-6.4c2.2-2.1,3.5-5,3.6-8.1
		c0.1-3.1-1-6-3.1-8.2L31.7,3.8c-2.3-2.3-5.4-3.5-8.8-3.5c-3.2,0-6.2,1.4-8.3,3.9C-8.8,31.9-3.2,64.4,31.2,100.8
		c21.5,22.6,42.2,34.1,61.5,34.1c11.9,0,23-4.1,34.2-12.5c2.5-1.9,4.1-5,4.4-8.1C131.5,110.9,130.4,107.8,128.2,105.6z M122.7,116.9
		c-9.6,7.3-19.5,10.9-29.7,10.9c-17.4,0-36-10.5-56.1-31.7C4.9,62.6-0.5,34.2,20.3,9.3c1-1.4,2.5-1.4,3.1-1.4c0.8,0,2,0.3,3,1.3
		l20.6,21.5c0.7,0.7,1,1.7,1,3c0,1.1-0.4,2.1-1.3,3L40,43.2c-3.8,3.6-5.9,8.3-5.9,13.4c-0.2,5.1,1.6,9.9,5.2,13.7l23.8,24.3
		c3.6,3.8,8.3,5.9,13.4,5.9c5.1,0.2,9.9-1.6,13.7-5.2l6.7-6.5c1.3-1.3,4.1-1.6,6,0.2l20.6,21.5c0.8,1.2,0.8,2.4,0.8,3.2
		C124.3,114.6,123.9,115.9,122.7,116.9z"/>
</g>
</svg>
