<svg xmlns="http://www.w3.org/2000/svg" width="93" height="29" viewBox="0 0 93 29">
    <g fill="none" fill-rule="evenodd">
        <path fill="#FFF" d="M-158-1073h320v2472h-320z"/>
        <path fill="#004F98" d="M37.616 1L33 29h7.38L45 1zM67.501 1.197C66.011.647 63.678.06 60.762.06 53.333.06 48.1 3.73 48.055 8.992c-.042 3.89 3.737 6.06 6.588 7.355 2.927 1.326 3.91 2.172 3.897 3.357-.019 1.814-2.337 2.643-4.498 2.643-3.01 0-4.608-.41-7.077-1.42l-.97-.43-1.055 6.059c1.757.755 5.004 1.41 8.375 1.444 7.904 0 13.035-3.63 13.093-9.248.028-3.079-1.975-5.423-6.313-7.354-2.627-1.252-4.237-2.088-4.22-3.356 0-1.125 1.362-2.328 4.306-2.328 2.459-.037 4.24.488 5.627 1.037l.674.312 1.02-5.866M77.51 18.003c.622-1.56 2.996-7.567 2.996-7.567-.045.072.617-1.567.997-2.583l.508 2.334s1.44 6.46 1.74 7.816H77.51zM86.781.556h-5.81c-1.8 0-3.146.482-3.937 2.245L65.868 27.607h7.895s1.291-3.335 1.583-4.067c.863 0 8.533.011 9.63.011.224.947.914 4.056.914 4.056h6.977L86.78.557zM26.41.55l-7.361 18.459-.785-3.752c-1.37-4.324-5.64-9.01-10.413-11.354l6.731 23.672 7.955-.009L34.374.55H26.41"/>
        <path fill="#F6A600" d="M12.22.533H.096L0 1.096c9.433 2.24 15.674 7.656 18.264 14.161L15.628 2.818C15.173 1.105 13.853.593 12.22.533"/>
    </g>
</svg>
