<?xml version="1.0" standalone="no"?>
<!DOCTYPE svg PUBLIC "-//W3C//DTD SVG 20010904//EN"
 "http://www.w3.org/TR/2001/REC-SVG-20010904/DTD/svg10.dtd">
<svg version="1.0" xmlns="http://www.w3.org/2000/svg"
 width="310.000000pt" height="310.000000pt" viewBox="0 0 310.000000 310.000000"
 preserveAspectRatio="xMidYMid meet">
<metadata>
Created by potrace 1.11, written by Peter Selinger 2001-2013
</metadata>
<g transform="translate(0.000000,310.000000) scale(0.100000,-0.100000)"
fill="#000000" stroke="none">
<path d="M0 1975 l0 -1125 130 0 c208 0 209 2 260 300 33 191 72 260 151 260
79 0 112 -36 143 -156 20 -78 31 -166 61 -481 14 -143 29 -273 35 -287 25 -68
47 -7 60 173 14 184 26 255 56 313 32 63 74 84 135 68 52 -14 83 -48 109 -119
11 -31 27 -74 35 -97 35 -94 98 -113 125 -37 18 54 5 125 -41 218 -47 96 -118
174 -334 371 -230 209 -328 322 -391 449 -62 128 -78 196 -78 340 0 210 60
362 193 495 142 141 333 203 511 166 140 -30 248 -102 350 -235 33 -45 65 -81
70 -81 6 0 33 31 61 70 166 229 396 308 647 221 145 -50 264 -153 336 -291
103 -196 107 -479 10 -672 -72 -142 -144 -225 -413 -473 -108 -100 -217 -208
-244 -240 -95 -118 -144 -258 -118 -338 15 -46 34 -61 66 -53 31 8 58 50 86
136 30 91 64 155 95 179 59 46 150 14 191 -69 21 -43 28 -80 51 -310 5 -58 11
-76 24 -78 26 -5 36 25 53 162 8 70 22 142 29 160 44 104 155 110 213 10 42
-71 47 -74 117 -74 35 0 118 -3 184 -7 l122 -6 0 -59 0 -60 -197 4 c-231 4
-248 9 -288 88 -13 27 -30 52 -36 56 -21 12 -36 -24 -43 -99 -21 -229 -55
-297 -153 -313 -35 -5 -44 -2 -76 25 -54 48 -68 101 -92 363 -4 36 -13 74 -20
85 -13 17 -14 17 -33 -2 -11 -11 -34 -64 -52 -118 -17 -54 -44 -112 -58 -129
-60 -71 -196 -94 -270 -46 -57 38 -77 86 -77 183 0 66 5 90 27 137 52 111 105
175 353 428 275 279 327 348 372 488 33 103 41 248 19 352 -46 215 -205 376
-405 410 -157 26 -271 -35 -402 -216 -40 -55 -68 -84 -80 -84 -12 0 -32 19
-52 47 -142 206 -264 279 -425 254 -149 -23 -290 -127 -357 -265 -84 -170 -86
-400 -6 -572 54 -115 113 -188 356 -434 250 -254 327 -350 360 -451 35 -105 0
-239 -73 -282 -39 -23 -119 -26 -175 -8 -56 19 -111 89 -142 179 -33 99 -39
109 -58 94 -18 -15 -23 -47 -42 -266 -18 -207 -40 -292 -86 -330 -56 -48 -132
-27 -168 46 -39 82 -66 250 -106 675 -16 173 -26 213 -49 213 -17 0 -31 -45
-41 -135 -10 -95 -42 -230 -63 -272 -28 -55 -82 -82 -189 -94 -48 -6 -127 -7
-175 -4 l-88 7 0 -366 0 -366 1550 0 1550 0 0 1550 0 1550 -1550 0 -1550 0 0
-1125z"/>
</g>
</svg>
